<?xml version="1.0" encoding="utf-8"?>
<!-- Generator: Adobe Illustrator 21.0.2, SVG Export Plug-In . SVG Version: 6.00 Build 0)  -->
<svg version="1.1" id="Слой_1" xmlns="http://www.w3.org/2000/svg" xmlns:xlink="http://www.w3.org/1999/xlink" x="0px" y="0px"
	 width="24px" height="24px" viewBox="0 0 24 24" style="enable-background:new 0 0 24 24;" xml:space="preserve">
<g>
	<path d="M19.1430664,4.1425781v8.5712891c0,0.6401367-0.125,1.2744141-0.3740234,1.902832
		c-0.25,0.6289063-0.5585938,1.1870117-0.9267578,1.6743164s-0.8076172,0.9619141-1.3164063,1.4228516
		c-0.5097656,0.4614258-0.9804688,0.8447266-1.4121094,1.1499023c-0.4316406,0.3046875-0.8818359,0.5932617-1.3505859,0.8647461
		s-0.8017578,0.4555664-0.9990234,0.5522461s-0.3554688,0.1713867-0.4746094,0.2236328
		c-0.0888672,0.0439453-0.1855469,0.0673828-0.2900391,0.0673828c-0.1035156,0-0.2011719-0.0234375-0.2900391-0.0673828
		c-0.1191406-0.0522461-0.2773438-0.1269531-0.4741211-0.2236328C11.0380859,20.184082,10.7050781,20,10.2363281,19.7285156
		s-0.9189453-0.5600586-1.3505859-0.8647461c-0.4311523-0.3051758-0.9018555-0.6884766-1.4116211-1.1499023
		c-0.5097656-0.4609375-0.9487305-0.9355469-1.3168945-1.4228516s-0.6772461-1.0454102-0.9262695-1.6743164
		c-0.2495117-0.628418-0.3740234-1.2626953-0.3740234-1.902832V4.1425781c0-0.1933594,0.0708008-0.3608398,0.2119141-0.5024414
		c0.1416016-0.1411133,0.3085938-0.2119141,0.5024414-0.2119141h12.8569336c0.1933594,0,0.3613281,0.0708008,0.5019531,0.2119141
		C19.0717773,3.7817383,19.1430664,3.9492188,19.1430664,4.1425781z M16.9995117,12.7138672V5.5712891h-5v12.6894531
		c0.8857422-0.46875,1.6777344-0.9780273,2.3779297-1.5288086C16.1254883,15.362793,16.9995117,14.0234375,16.9995117,12.7138672z"
		/>
</g>
</svg>
