<?xml version="1.0" encoding="utf-8"?>
<!-- Generator: Adobe Illustrator 21.0.2, SVG Export Plug-In . SVG Version: 6.00 Build 0)  -->
<svg version="1.1" id="Слой_1" xmlns="http://www.w3.org/2000/svg" xmlns:xlink="http://www.w3.org/1999/xlink" x="0px" y="0px"
	 width="24px" height="24px" viewBox="0 0 24 24" style="enable-background:new 0 0 24 24;" xml:space="preserve">
<g>
	<path d="M18.4287109,12.3571777v6.4287109c0,0.2973633-0.1044922,0.5507813-0.3125,0.7587891
		c-0.2089844,0.2084961-0.4619141,0.3125-0.7587891,0.3125H6.6425781c-0.2973633,0-0.5507813-0.1040039-0.7587891-0.3125
		c-0.2084961-0.2080078-0.3125-0.4614258-0.3125-0.7587891v-6.4287109c0-0.2973633,0.1040039-0.5507813,0.3125-0.7587891
		c0.2080078-0.2084961,0.4614258-0.3125,0.7587891-0.3125H7V9.1428223c0-1.3686523,0.4907227-2.5444336,1.4731445-3.5268555
		C9.4550781,4.6340332,10.6308594,4.1428223,12,4.1428223s2.5449219,0.4912109,3.5263672,1.4731445
		C16.5087891,6.5983887,17,7.7741699,17,9.1428223v2.1430664h0.3574219c0.296875,0,0.5498047,0.1040039,0.7587891,0.3125
		C18.3242188,11.8063965,18.4287109,12.0598145,18.4287109,12.3571777z M9.1425781,11.2858887h5.7148438V9.1428223
		c0-0.7885742-0.2792969-1.4619141-0.8378906-2.0200195C13.4619141,6.5646973,12.7880859,6.2858887,12,6.2858887
		c-0.7890625,0-1.4624023,0.2788086-2.0200195,0.8369141C9.421875,7.6809082,9.1425781,8.354248,9.1425781,9.1428223V11.2858887z"/>
</g>
</svg>
