<?xml version="1.0" encoding="utf-8"?>
<!-- Generator: Adobe Illustrator 21.0.2, SVG Export Plug-In . SVG Version: 6.00 Build 0)  -->
<svg version="1.1" id="Слой_1" xmlns="http://www.w3.org/2000/svg" xmlns:xlink="http://www.w3.org/1999/xlink" x="0px" y="0px"
	 width="24px" height="24px" viewBox="0 0 24 24" style="enable-background:new 0 0 24 24;" xml:space="preserve">
<g>
	<path d="M24.5712891,0.4116211c0,0.1635742-0.0966797,0.3422852-0.2900391,0.5356445l-4.0517578,3.9511719l0.9599609,5.5800781
		c0.0078125,0.0522461,0.0117188,0.1264648,0.0117188,0.2231445c0,0.15625-0.0390625,0.2885742-0.1171875,0.3964844
		c-0.078125,0.1074219-0.1923828,0.1616211-0.3408203,0.1616211c-0.1416016,0-0.2900391-0.0444336-0.4462891-0.1337891
		l-5.0107422-2.6337891l-5.0117188,2.6337891c-0.1635742,0.0893555-0.3125,0.1337891-0.4462891,0.1337891
		c-0.15625,0-0.2734375-0.0541992-0.3515625-0.1616211c-0.078125-0.1079102-0.1171875-0.2402344-0.1171875-0.3964844
		c0-0.0444336,0.0073242-0.1191406,0.0224609-0.2231445l0.9594727-5.5800781l-4.0625-3.9511719
		C6.0927734,0.746582,6,0.5678711,6,0.4116211C6,0.1362305,6.2080078-0.034668,6.625-0.1015625l5.6025391-0.8149414
		l2.5117188-5.078125c0.140625-0.3051758,0.3232422-0.4575195,0.546875-0.4575195
		c0.2226563,0,0.4052734,0.1523438,0.546875,0.4575195l2.5107422,5.078125l5.6025391,0.8149414
		C24.3632813-0.034668,24.5712891,0.1362305,24.5712891,0.4116211z"/>
</g>
</svg>
