<svg version="1.1" xmlns="http://www.w3.org/2000/svg" xmlns:xlink="http://www.w3.org/1999/xlink" x="0px" y="0px" width="24px" height="24px" viewBox="0 0 24 24" style="enable-background:new 0 0 24 24;" xml:space="preserve"><style type="text/css">.st0{fill:#e62727;}</style><g><path class="st0" d="M17.7307129,5.5046387c0.9414063,0.9077148,1.4121094,2.0795898,1.4121094,3.515625s-0.4707031,2.6079102-1.4121094,3.515625s-2.15625,1.3613281-3.6445313,1.3613281h-3.7939453v1.3168945h5.6357422c0.1054688,0,0.1894531,0.0336914,0.2578125,0.1005859c0.0664063,0.0668945,0.0996094,0.152832,0.0996094,0.2568359v1.4287109c0,0.1040039-0.0332031,0.1894531-0.0996094,0.2563477c-0.0683594,0.0668945-0.1523438,0.1005859-0.2578125,0.1005859h-5.6357422v2.1425781c0,0.1044922-0.0351563,0.1904297-0.105957,0.2568359c-0.0708008,0.0673828-0.1542969,0.1005859-0.2509766,0.1005859H8.0715332c-0.1044922,0-0.1899414-0.0332031-0.2568359-0.1005859c-0.0668945-0.0664063-0.1005859-0.1523438-0.1005859-0.2568359v-2.1425781h-2.5c-0.1040039,0-0.1894531-0.0336914-0.2563477-0.1005859s-0.1005859-0.1523438-0.1005859-0.2563477v-1.4287109c0-0.1040039,0.0336914-0.1899414,0.1005859-0.2568359s0.1523438-0.1005859,0.2563477-0.1005859h2.5v-1.3168945h-2.5c-0.1040039,0-0.1894531-0.0332031-0.2563477-0.1000977c-0.0668945-0.0673828-0.1005859-0.152832-0.1005859-0.2568359v-1.6630859c0-0.0966797,0.0336914-0.1801758,0.1005859-0.2509766s0.1523438-0.105957,0.2563477-0.105957h2.5V4.5002441c0-0.1044922,0.0336914-0.1899414,0.1005859-0.2568359S7.967041,4.1428223,8.0715332,4.1428223h6.0146484C15.5744629,4.1428223,16.7893066,4.5969238,17.7307129,5.5046387z M15.7717285,10.8283691c0.484375-0.4614258,0.7265625-1.0639648,0.7265625-1.8081055s-0.2421875-1.3466797-0.7265625-1.8081055c-0.4824219-0.4614258-1.1191406-0.6918945-1.9082031-0.6918945h-3.5712891v5h3.5712891C14.6525879,11.5202637,15.2893066,11.2897949,15.7717285,10.8283691z"/></g></svg>