<?xml version="1.0" encoding="utf-8"?>
<!-- Generator: Adobe Illustrator 21.0.2, SVG Export Plug-In . SVG Version: 6.00 Build 0)  -->
<svg version="1.1" id="Слой_1" xmlns="http://www.w3.org/2000/svg" xmlns:xlink="http://www.w3.org/1999/xlink" x="0px" y="0px"
	 width="40px" height="50px" viewBox="0 0 40 50" style="enable-background:new 0 0 40 50;" xml:space="preserve">
<style type="text/css">
	.st0{fill:#0071BC;}
</style>
<g>
	<path class="st0" d="M29.75,6.25h-3V7h3V6.25L29.75,6.25L29.75,6.25z M23.75,6.25h-3V7h3V6.25L23.75,6.25z M17.75,6.25h-3V7h3V6.25
		L17.75,6.25z M11.75,6.25h-1.5l0,0c-0.0017853,0-0.0035419,0.0000014-0.0053272,0.0000029
		c-0.0005283,0.0000005-0.000988,0.0000014-0.0015163,0.0000019c-0.001441,0.0000019-0.002903,0.0000043-0.004343,0.0000076
		c-0.0003529,0.0000005-0.0007925,0.0000014-0.0011444,0.0000024c-0.0017538,0.0000038-0.0035238,0.0000091-0.0052767,0.0000148
		c-0.0005283,0.0000019-0.0007849,0.0000029-0.0013132,0.0000048c-0.0014076,0.0000048-0.0027828,0.0000105-0.0041904,0.0000167
		c-0.0005283,0.0000024-0.0009346,0.0000038-0.001462,0.0000062c-0.0017519,0.0000081-0.0035448,0.0000172-0.0052967,0.0000272
		c-0.0001764,0.000001-0.0005922,0.0000038-0.0007687,0.0000048c-0.001564,0.0000091-0.0031128,0.0000186-0.0046768,0.0000291
		c-0.0005283,0.0000033-0.0009356,0.0000062-0.0014629,0.00001c-0.001627,0.0000114-0.0032473,0.0000229-0.0048733,0.0000358
		c-0.0001764,0.0000014-0.0003223,0.0000024-0.0004988,0.0000038c-0.0017509,0.0000143-0.0035372,0.0000296-0.0052881,0.0000453
		c-0.0005274,0.0000048-0.0009689,0.0000086-0.0014963,0.0000138c-0.0014381,0.0000129-0.0028534,0.0000267-0.0042915,0.0000415
		c-0.0003519,0.0000033-0.0008411,0.0000081-0.001193,0.0000119c-0.00175,0.0000176-0.0035629,0.0000372-0.0053129,0.0000572
		c-0.0003519,0.0000038-0.0007362,0.0000086-0.0010872,0.0000124c-0.0015001,0.0000172-0.0030365,0.0000358-0.0045357,0.0000544
		c-0.0003519,0.0000043-0.0008211,0.00001-0.0011721,0.0000143c-0.001812,0.0000229-0.0035963,0.0000458-0.0054083,0.0000706
		c-0.0001755,0.0000024-0.0004683,0.0000067-0.0006447,0.0000091c-0.0015602,0.0000215-0.0031815,0.0000443-0.0047426,0.0000672
		c-0.0005264,0.0000076-0.0009737,0.0000143-0.0015001,0.0000224c-0.0015612,0.0000234-0.0031404,0.0000472-0.0047007,0.000072
		c-0.0003519,0.0000057-0.0003099,0.0000048-0.0006618,0.0000105c-0.0017786,0.0000281-0.0035133,0.0000567-0.0052919,0.0000868
		c-0.000351,0.0000062-0.0011177,0.0000196-0.0014687,0.0000253c-0.0013733,0.0000238-0.0027304,0.0000477-0.0041027,0.0000725
		c-0.0005264,0.0000095-0.000948,0.0000167-0.0014744,0.0000262c-0.0017471,0.0000319-0.0034676,0.0000644-0.0052137,0.0000978
		c-0.000351,0.0000067-0.0007143,0.0000143-0.0010653,0.000021c-0.0014648,0.0000286-0.002861,0.0000563-0.0043268,0.0000858
		c-0.0005264,0.000011-0.001029,0.000021-0.0015554,0.0000319c-0.0017452,0.0000358-0.0035095,0.000073-0.0052557,0.0001101
		c-0.0001745,0.0000038-0.0001307,0.0000033-0.0003052,0.0000072c-0.0016832,0.0000362-0.0033827,0.0000739-0.0050659,0.0001121
		c-0.0005255,0.0000119-0.000927,0.000021-0.0014524,0.0000329c-0.0015583,0.0000358-0.0030375,0.0000701-0.0045958,0.0001073
		c-0.0001745,0.0000038-0.0006142,0.0000143-0.0007896,0.0000186c-0.0018072,0.0000429-0.0035782,0.0000863-0.0053844,0.0001311
		c-0.0005255,0.0000134-0.000617,0.0000157-0.0011435,0.0000291c-0.0015259,0.0000381-0.0030317,0.0000768-0.0045576,0.0001163
		c-0.00035,0.0000091-0.0007124,0.0000186-0.0010633,0.0000277c-0.0018053,0.0000472-0.0036268,0.0000958-0.0054321,0.000145
		c-0.0001755,0.0000048-0.0005112,0.0000143-0.0006857,0.0000191c-0.0015879,0.0000434-0.0032301,0.0000892-0.004817,0.000134
		c-0.00035,0.0000095-0.000843,0.0000238-0.001193,0.0000339c-0.0018053,0.0000515-0.0036097,0.0001035-0.005415,0.0001569
		h-0.0000048c-0.0018349,0.0000544-0.0036373,0.0001087-0.0054731,0.0001645
		c-0.000349,0.000011-0.0008421,0.0000262-0.001193,0.0000367c-0.0015545,0.0000482-0.0030584,0.0000949-0.0046139,0.000144
		c-0.000349,0.0000114-0.0005655,0.0000181-0.0009155,0.0000291c-0.0017719,0.0000563-0.0036011,0.0001159-0.005373,0.000174
		c-0.00035,0.0000114-0.0007305,0.0000243-0.0010805,0.0000358c-0.0014925,0.0000496-0.002984,0.0000992-0.0044765,0.0001502
		c-0.000349,0.0000114-0.000886,0.0000296-0.001236,0.000042c-0.0018024,0.0000615-0.0036268,0.0001245-0.0054283,0.0001879
		l-0.0002947,0.0000105c-0.001647,0.0000582-0.0033293,0.0001183-0.0049753,0.0001779
		c-0.00035,0.0000129-0.0011454,0.0000415-0.0014954,0.0000544c-0.001646,0.0000601-0.0033216,0.0001221-0.0049677,0.0001836
		l-0.0003099,0.0000114c-0.0018015,0.0000677-0.0036783,0.0001392-0.0054789,0.0002084
		c-0.00035,0.0000134-0.000742,0.0000286-0.001092,0.0000424c-0.0015516,0.0000601-0.0031204,0.0001216-0.0046721,0.0001831
		c-0.00035,0.0000138-0.0005541,0.0000215-0.0009031,0.0000358c-0.0017996,0.0000715-0.0036097,0.0001445-0.0054092,0.0002179
		c-0.00035,0.0000143-0.0005674,0.0000234-0.0009165,0.0000377c-0.0015516,0.0000634-0.0030842,0.0001273-0.0046349,0.0001922
		c-0.000349,0.0000148-0.0008192,0.0000343-0.0011683,0.0000491c-0.0036297,0.0001526-0.0072508,0.000309-0.0108776,0.0004692
		c-0.000349,0.0000157-0.0007792,0.0000348-0.0011282,0.0000501c-0.0016432,0.000073-0.0032263,0.000144-0.0048695,0.0002184
		c-0.0001736,0.0000081-0.0004683,0.0000215-0.0006428,0.0000291c-0.0017967,0.000082-0.0036287,0.0001664-0.0054255,0.0002499
		c-0.0003481,0.0000162-0.0006628,0.000031-0.0010118,0.0000472C10.002512,6.255805,10.0009537,6.2558784,9.9993744,6.2559533
		c-0.0001745,0.0000086-0.0007114,0.0000339-0.000886,0.0000424C9.9966297,6.2560844,9.9948368,6.2561707,9.992979,6.2562613
		c-0.0001745,0.0000086-0.00037,0.0000181-0.0005436,0.0000267c-0.0016718,0.000082-0.003294,0.0001621-0.0049658,0.0002456
		C9.9871206,6.2565508,9.986784,6.256568,9.9864349,6.2565851C9.9827824,6.2567682,9.9791145,6.2569556,9.9754639,6.2571459
		C9.9751148,6.257164,9.9747753,6.2571821,9.9744272,6.2572002C9.9727879,6.2572861,9.9711475,6.2573729,9.9695082,6.2574601
		c-0.0001736,0.0000091-0.0004234,0.0000224-0.000598,0.0000319C9.9670858,6.2575893,9.9652519,6.257688,9.9634275,6.2577877
		c-0.0003481,0.0000191-0.0005627,0.000031-0.0009108,0.0000496C9.9609709,6.2579222,9.9593754,6.2580099,9.9578295,6.2580957
		C9.9574814,6.2581153,9.9571753,6.258132,9.9568272,6.2581515C9.9549723,6.258255,9.9531374,6.258358,9.9512825,6.2584634
		L9.9512053,6.2584677c-0.0017929,0.0001016-0.0035887,0.000205-0.0053806,0.0003085
		c-0.0003481,0.00002-0.0006237,0.0000362-0.0009718,0.0000563C9.9411449,6.2590475,9.9374914,6.2592635,9.9337854,6.2594867
		C9.9334383,6.2595072,9.933363,6.2595119,9.9330158,6.2595329c-0.0016985,0.0001025-0.0033827,0.0002046-0.0050802,0.000309
		C9.9277611,6.2598524,9.9275417,6.2598658,9.9273682,6.2598763C9.9254856,6.2599921,9.9236259,6.260107,9.9217434,6.2602248
		C9.9215698,6.2602353,9.9214907,6.2602406,9.9213171,6.2602515C9.919589,6.2603593,9.9178734,6.2604675,9.9161453,6.2605772
		C9.9157982,6.2605996,9.9157372,6.2606034,9.91539,6.2606254c-0.0037327,0.0002379-0.0073996,0.0004749-0.0111303,0.000721
		C9.9039135,6.2613688,9.9037542,6.2613792,9.9034071,6.2614021c-0.0036993,0.0002441-0.007432,0.0004945-0.0111294,0.0007463
		C9.8921041,6.2621603,9.891737,6.2621856,9.8915634,6.262197C9.8898687,6.2623129,9.8881512,6.2624311,9.8864565,6.2625484
		C9.8862829,6.2625604,9.886096,6.2625732,9.8859224,6.2625852C9.8840132,6.2627177,9.8820992,6.2628512,9.8801899,6.2629857
		L9.8801727,6.2629871C9.878356,6.2631149,9.8765335,6.2632446,9.8747168,6.2633743
		C9.8745441,6.2633867,9.8740969,6.2634187,9.8739243,6.2634311c-0.003726,0.000267-0.0074692,0.0005393-0.0111923,0.000814
		C9.8625593,6.2642579,9.862277,6.2642789,9.8621035,6.2642913C9.8583193,6.2645712,9.8544722,6.2648597,9.8506899,6.2651477
		L9.8505507,6.2651582C9.8487053,6.2652988,9.8468418,6.2654419,9.8449974,6.2655845
		C9.8448238,6.2655978,9.8447542,6.2656031,9.8445807,6.2656164C9.8407993,6.2659087,9.836977,6.2662086,9.8331976,6.2665091
		C9.833025,6.2665229,9.83288,6.2665343,9.8327074,6.2665477c-0.003809,0.0003033-0.0075388,0.0006042-0.0113468,0.000916
		C9.821188,6.2674775,9.8210106,6.2674923,9.820838,6.2675061C9.8169994,6.2678204,9.8132038,6.2681355,9.8093681,6.2684579
		L9.8093309,6.2684612C9.8074284,6.2686214,9.8055344,6.2687817,9.8036318,6.2689438L9.8033524,6.2689676
		C9.7995176,6.2692947,9.7957239,6.2696223,9.7918911,6.2699575C9.7917185,6.2699728,9.7916555,6.269978,9.7914829,6.2699933
		C9.7876205,6.2703314,9.7838202,6.2706685,9.7799597,6.2710152l-0.000104,0.0000091
		C9.777956,6.2711949,9.7760181,6.2713699,9.7741184,6.271543L9.7740002,6.2715535
		c-0.0038595,0.000351-0.0076981,0.0007048-0.0115557,0.0010638C9.7622728,6.2726336,9.7623234,6.2726288,9.7621508,6.272645
		C9.7582941,6.2730045,9.7544861,6.2733641,9.7506313,6.2737322C9.7504587,6.2737484,9.7505875,6.273736,9.7504158,6.2737527
		C9.7269516,6.2759938,9.703558,6.2783885,9.6801825,6.280941L9.6801748,6.280942
		C9.3680983,6.3150187,9.0640154,6.3767366,8.7704372,6.4635773l0.2127457,0.7191901C9.393178,7.0614924,9.8193951,7,10.25,7h1.5
		V6.25L11.75,6.25z M6.2840986,8.0693359C6.2153177,8.1486883,6.148746,8.230237,6.0847287,8.3136101
		C6.084692,8.3136578,6.0847054,8.3136406,6.0846686,8.3136883C6.076654,8.3241262,6.0687671,8.3344765,6.0608292,8.3449755
		c-0.0000725,0.0000963-0.0001035,0.0001373-0.000176,0.0002337c-0.0023818,0.003149-0.0046244,0.0061226-0.0069985,0.0092773
		C6.0536184,8.3545351,6.0536323,8.354516,6.053596,8.3545647C6.0513206,8.3575878,6.049057,8.3606033,6.0467877,8.3636322
		C6.046607,8.3638725,6.0464292,8.36411,6.0462489,8.3643513C6.0440788,8.3672485,6.0418611,8.3702164,6.0396967,8.3731184
		C6.0395527,8.373312,6.0393696,8.3735571,6.0392256,8.3737507c-0.0021639,0.002902-0.0043974,0.0059052-0.0065551,0.008812
		C6.0324907,8.3828049,6.0323586,8.3829823,6.0321789,8.3832245C6.0314927,8.3841496,6.0306878,8.3852348,6.0300016,8.3861609
		L6.029984,8.3861847c-0.0014696,0.0019827-0.0029197,0.0039434-0.0043864,0.005929
		c-0.0001431,0.0001936-0.0002599,0.000351-0.0004029,0.0005445C6.0244122,8.3937178,6.0238519,8.3944769,6.0230703,8.3955364
		C6.0229273,8.39573,6.0227346,8.3959923,6.0225916,8.3961859C6.0213218,8.3979082,6.0200081,8.3996925,6.0187402,8.4014158
		C6.0185618,8.401659,6.0183201,8.4019871,6.0181417,8.4022293C6.0174594,8.4031582,6.016799,8.4040565,6.0161171,8.4049854
		C6.015903,8.4052773,6.0157471,8.4054909,6.015533,8.4057817C6.0141697,8.4076395,6.0129008,8.4093704,6.0115395,8.4112301
		C6.0114326,8.411376,6.0113235,8.4115257,6.0112166,8.4116716C6.0105362,8.4126015,6.0099783,8.4133644,6.0092988,8.4142942
		c-0.00032,0.0004377-0.0006237,0.0008535-0.0009437,0.0012922c-0.001359,0.0018606-0.0026813,0.0036726-0.0040379,0.0055351
		L6.0042715,8.4211845C6.003593,8.4221163,6.0029807,8.4229584,6.0023026,8.4238901
		c-0.000248,0.0003405-0.000525,0.000721-0.000773,0.0010624C5.9994001,8.4278822,5.99754,8.4304457,5.9954166,8.4333792
		C5.9951692,8.4337206,5.9948492,8.4341631,5.9946017,8.4345045C5.9925752,8.4373055,5.990706,8.4398937,5.9886847,8.4426985
		C5.9883323,8.4431868,5.9879913,8.4436607,5.987639,8.44415C5.987062,8.4449511,5.9864802,8.4457588,5.9859033,8.4465609
		C5.9855866,8.4470015,5.9852071,8.4475298,5.9848905,8.4479704C5.9839296,8.4493065,5.9828677,8.4507856,5.9819078,8.4521227
		C5.9815216,8.4526615,5.9811182,8.4532242,5.980732,8.453763C5.9801564,8.454565,5.9796529,8.4552679,5.9790778,8.4560709
		C5.9786568,8.4566593,5.9782782,8.4571896,5.9778571,8.457778C5.976995,8.4589825,5.9761043,8.4602299,5.9752431,8.4614353
		C5.9747872,8.4620733,5.97434,8.4626999,5.9738846,8.4633379C5.9734068,8.4640074,5.9728642,8.4647684,5.9723864,8.4654388
		c-0.0004897,0.0006876-0.0009675,0.001358-0.0014572,0.0020456c-0.0007639,0.0010729-0.0016699,0.002347-0.0024328,0.0034208
		C5.9680071,8.4715929,5.9675689,8.4722099,5.9670801,8.4728975C5.9666033,8.4735689,5.9660254,8.4743834,5.9655495,8.4750547
		C5.965096,8.4756937,5.9646368,8.4763412,5.9641838,8.4769812C5.9635172,8.4779215,5.9628496,8.4788637,5.962184,8.479804
		c-0.000627,0.000886-0.0012364,0.0017481-0.001863,0.002634C5.9598455,8.4831104,5.9593053,8.4838762,5.9588304,8.4845486
		c-0.000452,0.0006409-0.0009651,0.0013676-0.0014167,0.0020075C5.9569392,8.4872293,5.9564433,8.4879322,5.9559689,8.4886045
		C5.9551702,8.4897385,5.9543247,8.4909391,5.953527,8.4920731C5.9531479,8.4926119,5.9525046,8.4935274,5.952126,8.4940662
		C5.9516406,8.4947567,5.95117,8.4954271,5.950685,8.4961176C5.950212,8.4967918,5.9497094,8.4975071,5.9492369,8.4981813
		c-0.000762,0.0010862-0.001596,0.0022764-0.002357,0.0033627C5.9464078,8.5022182,5.9458561,8.5030079,5.945384,8.5036821
		c-0.0004492,0.0006428-0.000948,0.0013552-0.0013967,0.0019979C5.9435158,8.5063553,5.9429803,8.507122,5.9425087,8.5077972
		C5.941853,8.5087366,5.9411783,8.5097036,5.9405231,8.510643c-0.000659,0.000946-0.0010777,0.0015469-0.0017366,0.0024929
		C5.9382701,8.5138788,5.9377499,8.5146255,5.9372334,8.5153685c-0.0004702,0.0006762-0.0008321,0.0011959-0.0013018,0.001873
		C5.9351745,8.5183306,5.9344501,8.5193739,5.9336939,8.5204639C5.9333186,8.5210056,5.9327574,8.5218153,5.9323821,8.522356
		C5.9317636,8.5232487,5.9311495,8.5241356,5.9305315,8.5250282c-0.0003748,0.0005417-0.0009122,0.001318-0.001287,0.0018597
		C5.9285583,8.5278807,5.9279299,8.5287895,5.9272447,8.5297823c-0.0003748,0.0005426-0.0008535,0.001236-0.0012279,0.0017786
		C5.9252977,8.5326033,5.9245815,8.5336428,5.9238629,8.5346851C5.9234891,8.5352278,5.9230309,8.5358934,5.922657,8.5364361
		C5.9220076,8.5373802,5.921401,8.5382614,5.920752,8.5392065C5.9204721,8.5396137,5.9199839,8.5403242,5.919704,8.5407314
		c-0.0008197,0.001193-0.0016832,0.0024519-0.002502,0.0036449C5.9168296,8.54492,5.9164548,8.5454674,5.9160824,8.546011
		c-0.0006819,0.0009947-0.0012751,0.0018616-0.001956,0.0028572C5.9137545,8.5494118,5.9136143,8.5496159,5.9132423,8.5501604
		c-0.000885,0.0012941-0.0017829,0.0026093-0.002667,0.0039043C5.9102039,8.5546093,5.9099622,8.5549641,5.9095907,8.5555086
		C5.9089112,8.5565052,5.9082055,8.5575409,5.9075265,8.5585384c-0.000278,0.0004082-0.0005789,0.0008497-0.0008569,0.0012589
		C5.905787,8.5610933,5.90485,8.5624723,5.9039688,8.5637693c-0.0002775,0.0004091-0.0005746,0.0008469-0.0008521,0.001256
		C5.9023714,8.566124,5.9016237,8.5672255,5.9008794,8.568325c-0.000185,0.0002728-0.0004945,0.0007296-0.0006795,0.0010023
		C5.8992524,8.5707254,5.8983064,8.5721245,5.8973603,8.5735235C5.8971758,8.5737963,5.8969131,8.5741863,5.8967285,8.5744591
		C5.8959856,8.5755587,5.8951726,8.5767632,5.8944306,8.5778637c-0.0002766,0.0004101-0.000555,0.000823-0.0008316,0.0012331
		C5.8926888,8.5804472,5.8917751,8.5818043,5.8908658,8.5831556C5.8905897,8.5835657,5.8904572,8.5837641,5.8901811,8.5841742
		C5.8894405,8.5852757,5.8887134,8.5863581,5.8879733,8.5874605C5.8876977,8.5878706,5.8873601,8.5883741,5.8870845,8.5887852
		C5.8861771,8.5901375,5.8852253,8.5915575,5.8843188,8.5929117C5.8842273,8.593049,5.8840914,8.5932522,5.8839993,8.5933895
		C5.8831606,8.5946426,5.8822417,8.5960169,5.8814039,8.597271C5.8812208,8.5975456,5.8808341,8.5981245,5.880651,8.5983982
		c-0.0008373,0.001255-0.0017076,0.0025597-0.0025444,0.0038147C5.8780155,8.6023502,5.8778477,8.6026011,5.8777561,8.6027384
		c-0.000937,0.0014067-0.0018578,0.0027905-0.0027933,0.0041971c-0.0002737,0.000412-0.0004954,0.0007458-0.0007691,0.0011578
		C5.8733921,8.6092997,5.8726139,8.6104717,5.8718133,8.6116791c-0.0001822,0.0002747-0.0003538,0.0005331-0.000536,0.0008078
		C5.8703437,8.6138954,5.8694201,8.6152897,5.8684878,8.6166983c-0.0001822,0.0002756-0.000525,0.0007935-0.0007067,0.0010691
		C5.866982,8.6189747,5.86622,8.6201286,5.8654218,8.6213379C5.8652401,8.6216125,5.8650427,8.621911,5.864861,8.6221867
		c-0.0009303,0.0014105-0.0018597,0.00282-0.002789,0.0042315C5.8618002,8.6268311,5.8616495,8.6270609,5.8613777,8.6274738
		C5.8606143,8.6286335,5.859849,8.629797,5.859087,8.6309566c-0.0002718,0.0004139-0.0003929,0.000597-0.0006642,0.0010109
		c-0.0009608,0.0014629-0.0018516,0.002821-0.002811,0.0042849C5.8554311,8.636528,5.8552928,8.6367397,5.8551121,8.6370153
		C5.8543181,8.6382275,5.8535242,8.6394405,5.8527317,8.6406527C5.852551,8.6409292,5.8522034,8.6414604,5.8520231,8.641736
		c-0.0009246,0.0014153-0.001862,0.0028505-0.0027852,0.0042667c-0.0000901,0.0001373-0.0003395,0.0005207-0.0004296,0.000659
		c-0.000824,0.0012636-0.0016451,0.0025244-0.0024686,0.0037899C5.8460703,8.6508656,5.8459349,8.6510735,5.8456655,8.6514883
		C5.8447437,8.6529045,5.8437848,8.6543808,5.8428645,8.655798C5.8427749,8.6559372,5.8426533,8.6561241,5.8425636,8.6562624
		c-0.0008545,0.001317-0.0016599,0.0025597-0.0025129,0.0038767C5.8397818,8.6605549,5.8395681,8.6608849,5.8392992,8.6612997
		c-0.0018697,0.0028887-0.0037866,0.0058575-0.005651,0.00875C5.8334694,8.6703262,5.8332281,8.670702,5.8330493,8.6709795
		C5.83112,8.673974,5.8292322,8.6769114,5.8273091,8.6799097C5.8271308,8.6801872,5.8269873,8.6804123,5.8268089,8.6806898
		c-0.0009122,0.0014229-0.001822,0.0028429-0.0027332,0.0042677C5.823987,8.6850967,5.8240185,8.6850471,5.8239298,8.6851854
		C5.8229213,8.6867628,5.8219962,8.6882105,5.8209891,8.6897879c-0.0000887,0.0001392-0.0002913,0.0004578-0.00038,0.000597
		C5.8196993,8.6918097,5.8188076,8.6932087,5.8178997,8.6946354C5.817811,8.6947746,5.8177452,8.6948776,5.817657,8.6950169
		C5.8166842,8.6965446,5.815712,8.6980734,5.8147411,8.6996031C5.8146524,8.6997423,5.8144774,8.7000179,5.8143888,8.7001572
		C5.8134823,8.7015848,5.8126154,8.7029514,5.8117104,8.70438c-0.0000882,0.0001392-0.000217,0.0003424-0.0003052,0.0004816
		C5.8104033,8.7064438,5.8094316,8.7079792,5.8084316,8.7095613C5.8083434,8.7097015,5.8084612,8.7095146,5.808373,8.7096539
		C5.807373,8.711237,5.8064599,8.7126837,5.8054609,8.7142677C5.8053732,8.714407,5.8053141,8.7145004,5.8052263,8.7146397
		c-0.0019646,0.0031176-0.0039186,0.0062237-0.005877,0.0093451C5.799262,8.724124,5.7990661,8.7244358,5.7989783,8.724576
		C5.7970529,8.7276459,5.795105,8.7307577,5.7931852,8.7338324C5.7930107,8.7341118,5.7929769,8.7341661,5.7928023,8.7344456
		c-0.0019512,0.0031261-0.00389,0.0062389-0.0058346,0.0093699C5.7868805,8.7439556,5.7868185,8.7440548,5.7867312,8.7441959
		c-0.0019765,0.0031815-0.0039501,0.0063658-0.0059199,0.009552l-0.000145,0.0002346
		C5.7786646,8.7572212,5.7766752,8.7604465,5.7746806,8.763689L5.7746248,8.7637796
		c-0.0010133,0.001647-0.0019717,0.0032072-0.0029831,0.0048552l-0.0000253,0.000041
		C5.7695937,8.7719727,5.7676296,8.7751808,5.765614,8.7784824C5.7655277,8.7786226,5.765625,8.7784634,5.7655392,8.7786045
		C5.7635231,8.7819052,5.7615752,8.7851038,5.7595668,8.7884092l-0.0000629,0.000103
		c-0.001977,0.0032539-0.0039387,0.0064907-0.0059094,0.0097494C5.753509,8.7984028,5.7535253,8.7983761,5.7534399,8.7985172
		c-0.0019703,0.0032597-0.0039148,0.0064831-0.005878,0.0097466L5.7474794,8.8084011
		C5.7455158,8.8116646,5.743576,8.8148975,5.7416196,8.8181658C5.7415347,8.8183069,5.7415371,8.8183031,5.7414527,8.8184452
		C5.5785332,9.0906277,5.4395499,9.3785658,5.3274484,9.6793356l-0.00001,0.0000267
		C5.3233361,9.6903687,5.3192773,9.7013721,5.3152475,9.7124119L5.3152409,9.712431
		c-0.0013437,0.0036793-0.002667,0.0073175-0.0040021,0.0110016C5.311182,9.7235889,5.3112626,9.7233658,5.3112059,9.7235231
		C5.3092237,9.7289915,5.3072562,9.7344484,5.3052921,9.7399244C5.3052354,9.7400827,5.3052745,9.739975,5.3052177,9.7401314
		C5.3039155,9.7437639,5.3026395,9.7473345,5.3013449,9.7509689l-0.0000954,0.000268
		C5.2999759,9.7548141,5.2986832,9.7584572,5.2974167,9.7620392C5.2973609,9.7621965,5.2973552,9.7622128,5.2972994,9.7623701
		C5.2960539,9.7658939,5.2947798,9.7695103,5.2935419,9.7730379c-0.0001111,0.0003157-0.0000777,0.0002203-0.0001884,0.000536
		c-0.0012178,0.0034695-0.00248,0.0070791-0.0036907,0.0105524C5.289608,9.7842836,5.2894859,9.7846336,5.2894306,9.7847919
		C5.2882209,9.7882652,5.2870011,9.7917786,5.2857981,9.7952547C5.2856889,9.7955713,5.2856665,9.7956362,5.2855568,9.7959528
		C5.2849956,9.797575,5.2844477,9.7991619,5.2838883,9.8007851c-0.0000548,0.0001583-0.0000997,0.000288-0.000154,0.0004463
		c-0.0005994,0.0017395-0.001214,0.0035257-0.0018115,0.0052662C5.2818685,9.8066559,5.281805,9.8068409,5.2817507,9.8069992
		c-0.0005579,0.0016232-0.0011091,0.003232-0.0016651,0.0048561C5.2800317,9.8120136,5.2799473,9.8122597,5.2798929,9.812418
		C5.2792974,9.8141594,5.2786837,9.8159571,5.27809,9.8176985C5.2780356,9.8178568,5.2780232,9.8178949,5.2779689,9.8180532
		c-0.0005541,0.0016251-0.001111,0.0032625-0.0016632,0.0048895C5.2761979,9.8232594,5.2761669,9.8233509,5.2760592,9.8236675
		C5.2754674,9.8254108,5.2748814,9.8271399,5.274291,9.8288832c-0.0000534,0.0001583-0.0000553,0.000164-0.0001087,0.0003223
		c-0.0005307,0.0015688-0.0010657,0.0031538-0.001595,0.0047235C5.27248,9.8342466,5.2723417,9.8346567,5.2722344,9.8349743
		C5.2710786,9.8384047,5.2699413,9.8417912,5.2687922,9.8452244C5.2686858,9.8455429,5.2685828,9.84585,5.2684765,9.8461676
		c-0.0011287,0.003376-0.0022631,0.0067797-0.0033855,0.0101576C5.2649851,9.8566437,5.2648025,9.8571949,5.2646966,9.8575125
		C5.264194,9.8590279,5.2636747,9.8605938,5.2631736,9.8621082C5.2631211,9.8622675,5.2630692,9.8624239,5.2630167,9.8625832
		c-0.0005398,0.0016317-0.0011196,0.0033884-0.001658,0.0050211C5.2612014,9.868082,5.2611437,9.8682575,5.2609863,9.8687344
		C5.2605062,9.8701925,5.2599897,9.8717623,5.259511,9.8732204C5.2594585,9.8733807,5.2593632,9.8736706,5.2593107,9.8738289
		C5.2587748,9.8754625,5.258213,9.8771782,5.2576785,9.8788118c-0.0001044,0.0003185-0.0002828,0.000865-0.0003872,0.0011835
		C5.2568145,9.8814545,5.2563715,9.8828115,5.2558956,9.8842716c-0.000104,0.0003185-0.0001879,0.000577-0.0002918,0.0008955
		C5.2550712,9.8868027,5.2545166,9.8885088,5.2539859,9.8901443c-0.000104,0.0003185-0.0002375,0.0007315-0.0003409,0.00105
		C5.25319,9.8925972,5.2527146,9.8940659,5.2522607,9.8954687c-0.000103,0.0003195-0.0002098,0.0006485-0.0003128,0.000967
		C5.2514191,9.8980732,5.2508774,9.8997517,5.25035,9.9013891C5.250247,9.9017086,5.2500901,9.9021959,5.2499871,9.9025154
		C5.2495546,9.903861,5.249114,9.9052315,5.248682,9.9065771C5.2485795,9.9068966,5.2483811,9.9075146,5.2482786,9.9078341
		c-0.000525,0.0016384-0.0010633,0.0033188-0.0015869,0.0049582c-0.000051,0.0001593-0.0001774,0.000555-0.0002284,0.0007153
		C5.2460146,9.9149122,5.2455564,9.9163504,5.2451086,9.9177551C5.244956,9.9182348,5.2447901,9.9187555,5.2446375,9.9192362
		C5.244153,9.9207582,5.2436352,9.9223881,5.2431521,9.9239111C5.2430511,9.9242315,5.2429452,9.9245663,5.2428436,9.9248857
		C5.2423983,9.9262924,5.2419643,9.9276638,5.2415199,9.9290705C5.2413177,9.9297104,5.2412472,9.9299345,5.241045,9.9305744
		C5.2405825,9.9320402,5.240119,9.9335098,5.2396579,9.9349766C5.2396073,9.9351368,5.2395287,9.9353848,5.2394786,9.935545
		c-0.0005164,0.0016422-0.00103,0.0032787-0.0015445,0.004921C5.2377834,9.9409466,5.2376666,9.9413204,5.2375159,9.9418011
		C5.2370934,9.9431505,5.2366652,9.944521,5.2362437,9.9458704C5.2360935,9.946352,5.236043,9.9465122,5.2358932,9.9469929
		C5.2354169,9.9485188,5.234899,9.9501839,5.2344241,9.9517107C5.2342744,9.9521914,5.234067,9.9528599,5.2339177,9.9533415
		C5.2335529,9.9545164,5.2331796,9.9557199,5.2328153,9.9568949c-0.0001488,0.0004816-0.0003152,0.0010176-0.000464,0.0014992
		C5.2318602,9.95998,5.2314095,9.9614391,5.2309203,9.963026c-0.0001979,0.0006418-0.0003295,0.00107-0.0005274,0.0017118
		C5.2300487,9.9658546,5.2297297,9.9668922,5.2293863,9.9680099C5.2291889,9.9686527,5.2289958,9.9692793,5.2287989,9.9699221
		C5.2283478,9.9713926,5.2278724,9.9729424,5.2274227,9.9744139C5.2272749,9.9748955,5.2270436,9.9756536,5.2268963,9.9761353
		C5.226573,9.9771948,5.226243,9.9782753,5.2259202,9.9793348c-0.000196,0.0006428-0.0004091,0.0013428-0.0006051,0.0019855
		C5.2248673,9.9827919,5.2244143,9.9842825,5.2239676,9.985755c-0.000195,0.0006428-0.000351,0.0011578-0.000546,0.0018015
		C5.2231183,9.9885578,5.2227821,9.9896679,5.2224793,9.9906693C5.2222362,9.9914732,5.2220702,9.9920216,5.2218275,9.9928265
		C5.2214541,9.9940643,5.2211246,9.9951563,5.2207522,9.9963942c-0.0002909,0.0009661-0.000524,0.0017424-0.0008144,0.0027084
		c-0.0002837,0.0009432-0.0005856,0.0019484-0.0008683,0.0028925c-0.0001931,0.0006437-0.0004778,0.0015936-0.0006709,0.0022383
		c-0.0003176,0.0010614-0.0006289,0.0021038-0.0009465,0.0031662c-0.0002885,0.0009661-0.0006347,0.0021276-0.0009232,0.0030947
		c-0.0002813,0.0009441-0.0005732,0.0019255-0.000854,0.0028696c-0.0002398,0.0008059-0.0004869,0.0016384-0.0007262,0.0024443
		c-0.0002804,0.0009451-0.000535,0.0018044-0.0008149,0.0027485c-0.0002866,0.000968-0.0005732,0.001936-0.0008593,0.0029039
		c-0.0003319,0.0011215-0.0006719,0.0022736-0.0010028,0.003396c-0.0002379,0.0008068-0.0004473,0.0015192-0.0006847,0.002326
		c-0.0002785,0.0009451-0.000536,0.0018215-0.000814,0.0027666c-0.0001893,0.0006466-0.0004787,0.0016308-0.000668,0.0022764
		c-0.0003986,0.0013599-0.0008059,0.0027504-0.0012035,0.0041103c-0.000236,0.0008078-0.0004539,0.0015554-0.00069,0.0023623
		c-0.0002589,0.0008879-0.0004792,0.0016441-0.0007377,0.002532c-0.0002356,0.0008078-0.0004587,0.0015736-0.0006933,0.0023813
		c-0.0003958,0.0013609-0.0008016,0.002758-0.0011959,0.0041199c-0.0002813,0.0009699-0.0004501,0.0015535-0.0007305,0.0025234
		c-0.0002398,0.0008287-0.0004387,0.0015163-0.0006781,0.0023451c-0.0002804,0.0009708-0.0004668,0.0016165-0.0007467,0.0025873
		c-0.0003076,0.0010662-0.0006056,0.0021038-0.0009127,0.00317c-0.0003257,0.001133-0.0006671,0.0023232-0.0009923,0.0034561
		c-0.0002208,0.0007706-0.000433,0.0015097-0.0006533,0.0022802c-0.0002317,0.0008097-0.0004916,0.0017176-0.0007229,0.0025263
		c-0.0002713,0.0009489-0.000545,0.0019093-0.0008154,0.0028582c-0.0003695,0.0012951-0.0007305,0.0025635-0.0010991,0.0038595
		c-0.0002189,0.0007706-0.000401,0.0014105-0.0006199,0.0021811c-0.0002298,0.0008106-0.0005498,0.0019388-0.0007792,0.0027494
		c-0.000185,0.0006523-0.0003824,0.0013504-0.000567,0.0020037c-0.0004587,0.0016203-0.0009098,0.0032206-0.0013666,0.0048418
		c-0.0001841,0.0006523-0.0003309,0.0011721-0.0005145,0.0018253c-0.0002737,0.0009727-0.0005422,0.0019293-0.0008154,0.002902
		c-0.0001669,0.0005941-0.0003543,0.0012627-0.0005207,0.0018568c-0.0004549,0.0016222-0.0009484,0.0033855-0.0014014,0.0050087
		c-0.0001659,0.0005941-0.0003309,0.0011845-0.0004969,0.0017796c-0.0002718,0.0009737-0.0005636,0.0020227-0.0008349,0.0029974
		c-0.0001488,0.000535-0.0002742,0.0009871-0.000423,0.0015221c-0.0005417,0.0019484-0.0011392,0.0041037-0.0016785,0.0060539
		c-0.0000825,0.0002975-0.0001597,0.000577-0.0002418,0.0008736c-0.0003147,0.0011377-0.0005565,0.0020142-0.0008702,0.0031519
		c-0.0001473,0.000535-0.0002728,0.0009899-0.0004201,0.0015259c-0.0009403,0.0034132-0.0018654,0.0067863-0.0027986,0.0102015
		c-0.000114,0.0004177-0.0002408,0.0008821-0.0003548,0.0012989c-0.0009766,0.0035791-0.0018358,0.0067387-0.0028052,0.0103207
		c-0.000113,0.0004168-0.0002332,0.0008602-0.0003457,0.0012779c-0.0009689,0.003582-0.001894,0.0070181-0.0028553,0.010603
		c-0.0000801,0.0002975-0.0001516,0.0005636-0.0002313,0.0008612c-0.0009608,0.0035858-0.0019159,0.007165-0.0028691,0.0107527
		c-0.0000954,0.0003586-0.0001636,0.0006151-0.0002589,0.0009737c-0.0003028,0.0011425-0.0006299,0.0023737-0.0009317,0.0035152
		c-0.0000477,0.0001793-0.0000682,0.0002584-0.0001159,0.0004377c-0.0006042,0.002284-0.0012846,0.0048618-0.0018859,0.0071468
		c-0.0000315,0.0001202-0.0000863,0.0003281-0.0001178,0.0004482c-0.0003438,0.0013056-0.0006123,0.0023289-0.0009551,0.0036345
		c-0.0000625,0.0002394-0.000102,0.000391-0.000165,0.0006304c-0.0009842,0.0037556-0.001925,0.0073605-0.0029016,0.0111189
		c-0.0000463,0.0001802-0.0000939,0.0003624-0.0001402,0.0005417c-0.0009761,0.0037594-0.0019469,0.007515-0.0029144,0.0112772
		c-0.000031,0.0001202-0.0000577,0.0002232-0.0000887,0.0003433c-0.0010095,0.0039263-0.0019202,0.0074835-0.0029211,0.0114126
		c-0.0000305,0.0001202-0.0000558,0.0002203-0.0000863,0.0003405c-0.0010009,0.0039291-0.0019269,0.0075817-0.0029187,0.0115147
		c-0.0000153,0.0000601-0.0000343,0.0001364-0.0000496,0.0001965c-0.0443077,0.1756716-0.0796432,0.3544607-0.1056051,0.5365095
		l0.7424822,0.1059151c0.1214476-0.8513107,0.4865928-1.6484709,1.0559626-2.3052902L6.2840977,8.069335L6.2840986,8.0693359z
		 M5.75,13.7575607H5v3h0.75V13.7575607L5.75,13.7575607z M5.75,19.7575607H5v3h0.75V19.7575607L5.75,19.7575607z M5.75,25.7575607
		H5v3h0.75V25.7575607L5.75,25.7575607z M5.75,31.7575588H5v3.0000019h0.75V31.7575588L5.75,31.7575588z M5.75,37.7575607H5V38.5
		c0,0.0014763,0.0000005,0.0029106,0.0000019,0.0043831c0.0000005,0.0005302,0.0000014,0.0009918,0.0000019,0.0015221
		c0.000001,0.0009995,0.0000019,0.0019302,0.0000038,0.0029259c0.000001,0.0005264,0.0000024,0.0011902,0.0000033,0.0017166
		c0.0000019,0.0009041,0.0000033,0.0017586,0.0000057,0.0026627c0.0000014,0.0005302,0.0000038,0.0012894,0.0000052,0.0018196
		c0.0000024,0.0009041,0.0000048,0.0017166,0.0000076,0.0026207c0.0000024,0.0007019,0.0000043,0.0011787,0.0000072,0.0018806
		c0.0000029,0.0008545,0.0000062,0.0016708,0.0000095,0.0025253c0.0000024,0.0005302,0.0000057,0.0013237,0.0000081,0.0018539
		c0.0000038,0.0008545,0.0000081,0.0017357,0.0000124,0.0025902c0.0000033,0.0007057,0.0000057,0.0011749,0.0000095,0.0018768
		c0.0000048,0.0008583,0.0000095,0.0017166,0.0000148,0.0025749c0.0000029,0.0005264,0.0000072,0.001236,0.0000105,0.0017624
		c0.0000057,0.0009003,0.000011,0.0017395,0.0000172,0.0026398c0.0000043,0.0007057,0.0000076,0.0012016,0.0000129,0.0019035
		c0.0000057,0.0008583,0.0000119,0.0016632,0.0000186,0.0025177c0.0000052,0.0007057,0.0000081,0.0011101,0.0000134,0.0018158
		c0.0000072,0.0009003,0.0000148,0.0018311,0.0000224,0.0027313c0.0000048,0.0005302,0.00001,0.0011711,0.0000143,0.0016975
		c0.0000086,0.0009995,0.0000181,0.0020142,0.0000272,0.0030136c0.0000033,0.000351,0.0000091,0.0009995,0.0000124,0.0013504
		c0.0000105,0.0010948,0.0000219,0.0022011,0.0000329,0.0032921c0.0000033,0.000351,0.0000081,0.0008278,0.0000119,0.0011787
		c0.0000153,0.0014763,0.0000315,0.0029793,0.0000477,0.0044556L5.0003328,38.55933
		c0.0000167,0.0014687,0.0000329,0.0028648,0.0000505,0.0043335c0.0000043,0.000351,0.0000114,0.0009193,0.0000157,0.0012741
		c0.0000129,0.0010414,0.0000262,0.00214,0.0000396,0.0031853c0.0000072,0.0005264,0.0000129,0.0009727,0.00002,0.0014992
		c0.0000124,0.0009499,0.0000238,0.0018158,0.0000367,0.0027657c0.00001,0.0007019,0.0000176,0.001255,0.0000277,0.0019569
		c0.0000114,0.0008049,0.0000238,0.0016861,0.0000353,0.0024948c0.0000076,0.0005264,0.00002,0.0013313,0.0000277,0.0018616
		c0.0000129,0.0008507,0.0000253,0.0016937,0.0000386,0.0025482c0.0000081,0.0005264,0.00002,0.0013008,0.0000281,0.0018272
		c0.0000143,0.0009003,0.0000277,0.0017357,0.0000424,0.002636c0.000011,0.0007019,0.0000181,0.0011215,0.0000296,0.0018234
		c0.0000143,0.0008545,0.0000277,0.0016365,0.000042,0.002491c0.0000091,0.0005264,0.0000238,0.0014,0.0000334,0.0019264
		c0.0000153,0.0009003,0.0000296,0.0016823,0.0000453,0.0025826c0.0000129,0.0007019,0.00002,0.0011139,0.0000329,0.0018158
		c0.0000162,0.0009041,0.000031,0.0016975,0.0000482,0.0025978c0.00001,0.0005264,0.0000234,0.0012474,0.0000334,0.0017738
		c0.0000176,0.000946,0.0000372,0.0019379,0.0000558,0.0028839c0.0000105,0.0005264,0.0000191,0.0009842,0.0000296,0.0015106
		c0.0000191,0.000946,0.0000372,0.0018311,0.0000563,0.0027847c0.000011,0.0005226,0.0000238,0.0011597,0.0000343,0.0016861
		c0.0000257,0.0012283,0.000052,0.0024567,0.0000782,0.003685c0.0000076,0.000351,0.0000148,0.0007019,0.0000224,0.0010567
		c0.0000291,0.0013237,0.0000582,0.0026588,0.0000877,0.0039864c0.0000119,0.0005264,0.0000181,0.0007782,0.00003,0.0013046
		c0.0000234,0.0010376,0.0000467,0.0020676,0.000071,0.0031128c0.0000119,0.0005264,0.0000243,0.00103,0.0000367,0.0015564
		c0.0000219,0.000946,0.0000434,0.0018387,0.0000658,0.0027885c0.0000129,0.0005226,0.0000319,0.001297,0.0000448,0.0018234
		c0.0000205,0.0008545,0.0000429,0.0017548,0.0000639,0.0026054c0.0000176,0.0007019,0.0000262,0.0010376,0.0000439,0.0017395
		c0.0000224,0.0009003,0.0000443,0.0017624,0.0000677,0.0026588c0.0000134,0.0005264,0.0000334,0.0012894,0.0000467,0.001812
		c0.0000224,0.0008545,0.0000453,0.0017242,0.0000677,0.0025749c0.0000186,0.0007019,0.0000315,0.0011711,0.0000505,0.001873
		c0.0000215,0.0008049,0.0000434,0.0016098,0.0000653,0.0024147c0.0000191,0.0007019,0.0000377,0.0013657,0.0000567,0.0020676
		c0.0000215,0.0007553,0.0000448,0.0016022,0.0000663,0.0023575c0.00002,0.0006981,0.0000362,0.0012817,0.0000563,0.0019798
		c0.0000229,0.0008049,0.0000458,0.0015945,0.0000691,0.0023956c0.0000205,0.0007019,0.0000381,0.0013161,0.0000591,0.002018
		c0.0000248,0.0008507,0.0000505,0.0017128,0.0000763,0.0025635c0.0000157,0.0005226,0.0000362,0.0012131,0.000052,0.0017395
		c0.0000272,0.0008965,0.0000548,0.0018044,0.0000825,0.0027008c0.0000219,0.0007019,0.0000319,0.0010414,0.0000539,0.0017433
		c0.0000381,0.0012283,0.0000777,0.0024872,0.0001168,0.0037155c0.0000057,0.0001755,0.0000124,0.0003967,0.0000181,0.0005722
		c0.0000467,0.0014648,0.0000939,0.0029144,0.0001416,0.0043793c0.0000172,0.0005264,0.0000353,0.0010605,0.0000525,0.0015869
		c0.0000315,0.0009422,0.0000615,0.0018578,0.0000935,0.0028038c0.0000234,0.0006981,0.0000386,0.001133,0.000062,0.0018349
		c0.0000291,0.0008507,0.0000567,0.0016747,0.0000863,0.0025253c0.0000181,0.0005226,0.0000458,0.0013199,0.0000639,0.0018425
		c0.000031,0.0008965,0.0000606,0.0017433,0.0000925,0.0026398c0.0000243,0.0006981,0.0000353,0.0010033,0.0000601,0.0016975
		c0.0000305,0.0008507,0.0000629,0.0017586,0.0000935,0.0026093c0.0000191,0.0005226,0.0000501,0.0013771,0.0000691,0.0019035
		c0.000031,0.0008469,0.0000615,0.0016823,0.000093,0.0025291c0.0000191,0.0005264,0.0000477,0.0012856,0.0000668,0.0018082
		c0.0000319,0.0008507,0.0000644,0.0017204,0.0000968,0.0025711c0.0000262,0.0006981,0.0000424,0.0011215,0.0000687,0.0018196
		c0.0000343,0.0008965,0.0000687,0.0017929,0.0001035,0.0026894c0.00002,0.0005226,0.0000439,0.0011368,0.0000644,0.0016632
		c0.0000329,0.0008469,0.0000691,0.0017662,0.0001025,0.0026131c0.0000277,0.0006981,0.0000463,0.0011711,0.0000739,0.001873
		c0.0000319,0.0008011,0.0000672,0.0016747,0.0000997,0.0024757c0.0000281,0.0007019,0.0000486,0.0012093,0.0000768,0.0019035
		c0.0000324,0.0008011,0.0000658,0.0016174,0.0000992,0.0024185c0.0000215,0.0005226,0.0000596,0.0014496,0.0000811,0.001976
		C5.0045619,38.7194443,5.0046,38.7203522,5.0046358,38.721199c0.0000291,0.0006981,0.0000434,0.001049,0.000073,0.0017471
		c0.0000458,0.0010834,0.0000896,0.0021019,0.0001359,0.0031853c0.00003,0.0006981,0.0000615,0.0014229,0.0000916,0.002121
		c0.0000491,0.0011292,0.0000968,0.0022354,0.0001469,0.0033646c0.0000229,0.0005226,0.0000467,0.0010567,0.0000701,0.0015793
		c0.0000415,0.0009422,0.0000811,0.0018349,0.000123,0.0027733c0.0000234,0.0005264,0.0000644,0.0014267,0.0000877,0.0019493
		c0.0000362,0.0007973,0.000071,0.0015755,0.0001078,0.0023727c0.0000319,0.0006981,0.0000653,0.0014267,0.0000973,0.0021248
		c0.0000348,0.0007553,0.0000672,0.001461,0.0001025,0.0022125c0.0000319,0.0006981,0.0000677,0.0014534,0.0001001,0.0021515
		c0.0000353,0.0007515,0.0000701,0.0014954,0.0001059,0.0022507c0.0000248,0.0005226,0.0000725,0.0015182,0.0000973,0.0020409
		c0.0000358,0.0007515,0.0000739,0.0015526,0.0001101,0.0023041c0.0000334,0.0006981,0.0000696,0.0014458,0.0001035,0.00214
		c0.0000367,0.0007553,0.0000715,0.0014725,0.0001082,0.002224c0.0000343,0.0006981,0.0000677,0.0013733,0.000102,0.0020714
		c0.0000391,0.0008011,0.0000758,0.0015335,0.0001154,0.0023346c0.0000348,0.0006943,0.0000658,0.0013123,0.0001006,0.0020142
		c0.0000424,0.0008469,0.0000806,0.0015907,0.0001235,0.0024376c0.0000353,0.0006981,0.0000601,0.0011902,0.0000954,0.0018883
		c0.000041,0.0008011,0.0000834,0.0016212,0.0001245,0.0024223c0.0000358,0.0006943,0.0000682,0.0013237,0.0001044,0.0020218
		c0.000041,0.0007973,0.0000777,0.0014915,0.0001192,0.0022926c0.0000367,0.0006943,0.0000696,0.0013313,0.0001063,0.0020294
		c0.0000396,0.0007515,0.0000782,0.0014725,0.0001183,0.002224c0.0001664,0.0031319,0.0003333,0.0062294,0.0005054,0.0093613
		c0.0000234,0.0004234,0.0000439,0.0008049,0.0000672,0.0012321c0.0000482,0.0008698,0.0000973,0.0017471,0.0001454,0.0026169
		c0.0000315,0.0005646,0.0000687,0.001236,0.0001001,0.0018005c0.0000391,0.0006943,0.0000916,0.0016212,0.0001307,0.0023155
		c0.0000372,0.0006599,0.0000763,0.001358,0.000114,0.0020142c0.0000396,0.0006981,0.0000873,0.0015297,0.0001268,0.0022278
		c0.0000429,0.0007515,0.0000825,0.0014381,0.0001259,0.0021935c0.0000501,0.0008659,0.0000739,0.0012779,0.0001245,0.0021477
		c0.000041,0.0007057,0.0000825,0.0014153,0.0001235,0.0021172c0.0000405,0.0006943,0.0000916,0.001564,0.0001326,0.0022583
		c0.0000415,0.0007057,0.0000844,0.0014343,0.0001264,0.00214c0.000041,0.0006943,0.0000868,0.0014534,0.0001283,0.0021515
		c0.0000448,0.0007515,0.0000882,0.0014763,0.0001335,0.0022316c0.000042,0.0006905,0.000083,0.0013771,0.0001254,0.0020752
		c0.0000453,0.0007477,0.000092,0.0015182,0.0001378,0.0022697c0.0000424,0.0006905,0.0000892,0.001461,0.0001321,0.0021553
		c0.0000401,0.0006561,0.0000796,0.0012932,0.0001202,0.0019493c0.0000429,0.0006943,0.0001078,0.0017433,0.0001512,0.0024376
		c0.0000377,0.0006104,0.0000787,0.0012627,0.0001168,0.001873c0.0000544,0.0008659,0.0000968,0.001545,0.0001516,0.0024147
		c0.0000472,0.0007477,0.0000925,0.001461,0.0001402,0.0022125c0.0000439,0.0006943,0.0000863,0.0013618,0.0001307,0.0020599
		c0.0000691,0.0010757,0.000133,0.0020676,0.0002022,0.0031433c0.0000672,0.0010414,0.0001268,0.0019608,0.0001945,0.0029984
		c0.000052,0.0007973,0.0001025,0.0015793,0.0001545,0.0023727c0.0000567,0.0008698,0.0001011,0.0015335,0.0001583,0.0024033
		c0.0000434,0.0006523,0.0000854,0.001297,0.0001292,0.0019531c0.0000572,0.0008659,0.0000949,0.0014229,0.0001526,0.0022888
		c0.0000472,0.0007057,0.0000873,0.0013046,0.0001345,0.0020065c0.0000463,0.0006943,0.0001183,0.0017586,0.000165,0.002449
		c0.0000415,0.0006104,0.0000834,0.0012321,0.0001249,0.0018387c0.0000587,0.0008698,0.0001116,0.0016403,0.0001712,0.0025101
		c0.0000415,0.0006065,0.0000792,0.0011597,0.0001211,0.00177c0.0000596,0.0008659,0.000114,0.0016479,0.000174,0.0025177
		c0.0000424,0.0006104,0.0000873,0.0012589,0.0001297,0.0018692c0.0000486,0.0006905,0.0001135,0.0016212,0.0001621,0.0023117
		c0.0000491,0.0007057,0.0000949,0.0013542,0.0001445,0.0020561c0.000061,0.0008659,0.000104,0.0014725,0.0001655,0.0023384
		c0.0000429,0.0006065,0.0000911,0.0012817,0.0001345,0.0018883c0.0000615,0.0008659,0.0001092,0.0015335,0.0001717,0.0023994
		c0.0000467,0.0006561,0.000093,0.0012932,0.0001402,0.0019455c0.0000501,0.0006943,0.0001225,0.0016937,0.0001726,0.002388
		c0.000051,0.0007019,0.0000968,0.0013351,0.0001483,0.0020332c0.0000505,0.0006943,0.0001087,0.0014915,0.0001597,0.0021858
		c0.0000548,0.0007477,0.0001121,0.0015182,0.0001669,0.0022659c0.0000515,0.0006905,0.0001054,0.0014229,0.0001569,0.0021133
		c0.0000553,0.0007515,0.000104,0.0013962,0.0001597,0.0021439c0.000052,0.0006943,0.0001087,0.001461,0.0001607,0.0021515
		c0.0000634,0.000843,0.000123,0.0016289,0.0001864,0.0024719c0.0000916,0.0012131,0.0001888,0.0024872,0.0002809,0.0036964
		c0.0000606,0.0007973,0.0001211,0.0015869,0.0001822,0.0023804c0.0000663,0.0008659,0.0001001,0.0013008,0.0001669,0.0021667
		c0.0000505,0.0006561,0.0001068,0.0013885,0.0001578,0.0020409c0.0000534,0.0006943,0.0001407,0.0018082,0.000195,0.0025024
		c0.0000472,0.0006065,0.0000925,0.0011902,0.0001402,0.0017967c0.0000677,0.0008659,0.0001302,0.0016556,0.0001984,0.0025215
		c0.0000443,0.0005608,0.0000944,0.001194,0.0001388,0.0017548c0.0000682,0.0008659,0.0001264,0.0015945,0.0001955,0.0024567
		c0.000052,0.0006561,0.0001001,0.0012589,0.0001526,0.001915c0.0000691,0.0008621,0.0001273,0.0015869,0.0001969,0.0024529
		c0.0000453,0.0005608,0.0000944,0.0011711,0.0001397,0.0017319c0.0000558,0.0006905,0.0001516,0.0018654,0.0002074,0.0025558
		c0.0000458,0.0005608,0.0000992,0.0012169,0.000145,0.0017738c0.0000706,0.0008659,0.0001369,0.0016747,0.0002079,0.0025406
		c0.000042,0.0005112,0.0000949,0.0011482,0.0001369,0.0016594c0.0000715,0.0008659,0.0001464,0.00177,0.0002179,0.0026321
		c0.0000463,0.0005608,0.000093,0.0011177,0.0001397,0.0016785c0.000072,0.0008621,0.0001464,0.0017586,0.0002189,0.0026207
		c0.0000429,0.000515,0.0000868,0.00103,0.0001297,0.0015411c0.0000873,0.0010376,0.0001435,0.001709,0.0002313,0.0027428
		c0.0000358,0.0004234,0.0000763,0.0009003,0.0001121,0.0013161c0.0004106,0.004837,0.0008078,0.0094376,0.0012317,0.014267
		c0.0000405,0.0004654,0.0000744,0.0008507,0.0001154,0.0013199c0.0000758,0.0008583,0.0001521,0.0017204,0.0002284,0.0025826
		c0.0000534,0.0006065,0.0001006,0.0011406,0.0001545,0.0017433c0.000061,0.0006905,0.0001569,0.0017624,0.0002184,0.0024529
		c0.0000539,0.0006065,0.0001078,0.0012093,0.0001621,0.001812c0.0000772,0.0008659,0.0001488,0.0016632,0.0002265,0.0025215
		c0.0000544,0.0006065,0.0001063,0.0011826,0.0001612,0.0017853c0.0000782,0.0008659,0.0001454,0.001606,0.0002236,0.0024681
		c0.000051,0.0005569,0.0001092,0.0012016,0.0001602,0.0017586c0.0000787,0.0008621,0.0001607,0.0017586,0.0002398,0.0026169
		c0.000051,0.0005608,0.0001001,0.001091,0.0001516,0.0016479c0.0000792,0.0008621,0.000154,0.0016747,0.0002341,0.0025368
		c0.0000515,0.0005569,0.0001092,0.0011826,0.0001612,0.0017395c0.0000801,0.0008621,0.0001669,0.0017929,0.0002475,0.002655
		c0.0000477,0.0005112,0.0000882,0.0009422,0.0001364,0.0014572c0.0000806,0.0008583,0.0001822,0.0019417,0.0002632,0.0028
		c0.0000439,0.0004654,0.0000854,0.0009079,0.0001297,0.0013695c0.0000973,0.0010338,0.0001798,0.0019035,0.000278,0.0029335
		c0.0000353,0.0003738,0.0000687,0.0007248,0.0001044,0.0010986c0.0000982,0.00103,0.0002012,0.0021095,0.0003004,0.0031433
		c0.0000176,0.0001869,0.0000391,0.0004044,0.0000567,0.0005875c0.0003638,0.0037918,0.0007405,0.0076637,0.001112,0.0114479
		c0.0000138,0.0001373,0.0000296,0.0003014,0.0000434,0.0004425c0.0000844,0.0008583,0.0001912,0.0019341,0.0002761,0.0027962
		c0.0000505,0.0005112,0.0001044,0.0010529,0.000155,0.001564c0.0000854,0.0008621,0.0001936,0.0019493,0.0002794,0.0028076
		c0.0000463,0.0004654,0.0000868,0.0008736,0.0001335,0.0013351c0.0000858,0.0008621,0.0001941,0.0019417,0.0002804,0.0028
		c0.0000515,0.0005112,0.0001059,0.0010529,0.0001574,0.001564c0.0000868,0.0008583,0.0001826,0.0018082,0.0002699,0.0026627
		c0.0000515,0.0005112,0.000104,0.00103,0.0001559,0.0015411c0.0000873,0.0008583,0.0001798,0.0017624,0.0002675,0.0026207
		c0.0000615,0.0006027,0.0001187,0.0011635,0.0001802,0.0017662c0.0000882,0.0008583,0.0001731,0.0016823,0.0002618,0.0025406
		c0.0000525,0.0005112,0.0001063,0.0010338,0.0001593,0.001545c0.0000887,0.0008583,0.0001993,0.0019264,0.0002885,0.0027847
		c0.0000529,0.0005112,0.0000973,0.0009384,0.0001507,0.0014496c0.0000892,0.0008583,0.0001998,0.0019188,0.0002899,0.0027771
		c0.0000486,0.0004616,0.0001001,0.0009575,0.0001488,0.0014191c0.0000901,0.0008583,0.0002084,0.0019836,0.000299,0.0028419
		c0.0000491,0.0004616,0.0000877,0.0008278,0.0001369,0.0012932c0.0001087,0.00103,0.0002093,0.001976,0.0003185,0.003006
		c0.0000248,0.0002327,0.0000434,0.0004082,0.0000682,0.0006371c0.0006943,0.0065231,0.0014148,0.0131683,0.0021334,0.01968
		c0.0000205,0.0001869,0.0000262,0.0002403,0.0000467,0.0004234c0.0001326,0.0012016,0.0002613,0.0023575,0.0003943,0.0035629
		c0.0000257,0.0002289,0.0000486,0.0004349,0.0000744,0.0006676c0.0001335,0.0011978,0.0002298,0.0020599,0.0003638,0.0032578
		c0.0000362,0.0003242,0.0000782,0.0006981,0.0001144,0.0010223c0.0001149,0.00103,0.0002375,0.0021172,0.0003533,0.0031471
		c0.000042,0.00037,0.0000834,0.0007401,0.0001249,0.0011063c0.0001163,0.00103,0.0002184,0.0019302,0.0003347,0.0029602
		c0.0000472,0.000412,0.0001016,0.0008926,0.0001493,0.0013084c0.0001168,0.0010262,0.0002284,0.0020103,0.0003462,0.0030365
		c0.000042,0.00037,0.0000772,0.0006752,0.0001192,0.0010452c0.0001178,0.0010262,0.0002375,0.0020676,0.0003557,0.0030937
		c0.0000424,0.00037,0.0000887,0.0007706,0.0001311,0.0011406c0.0001383,0.0011978,0.0002298,0.0019913,0.0003686,0.0031891
		c0.0000272,0.0002289,0.0000539,0.0004616,0.0000806,0.0006905c0.0001392,0.0012016,0.0002675,0.0023003,0.0004072,0.0034981
		c0.0000215,0.0001831,0.0000296,0.0002518,0.000051,0.0004349c0.0009203,0.0078697,0.0018625,0.0157776,0.0028181,0.0236397
		c0.0000339,0.0002747,0.0000687,0.0005646,0.0001025,0.000843c0.0001454,0.001194,0.0002627,0.0021553,0.0004091,0.0033531
		c0.0000281,0.0002289,0.0000639,0.0005226,0.0000925,0.0007553c0.0001464,0.001194,0.0002608,0.0021286,0.0004082,0.0033226
		c0.0000396,0.0003204,0.000073,0.0005913,0.0001125,0.0009117c0.0001264,0.00103,0.0002885,0.0023346,0.0004158,0.0033646
		c0.0000281,0.0002289,0.0000587,0.000473,0.0000873,0.0007019c0.0001273,0.0010262,0.0002933,0.0023575,0.000421,0.0033836
		c0.0000343,0.0002785,0.0000772,0.000618,0.0001116,0.0008965c0.0001283,0.0010223,0.0002856,0.0022774,0.0004139,0.0033035
		c0.0000348,0.0002747,0.0000629,0.0004959,0.0000978,0.0007744c0.0001502,0.001194,0.0002789,0.0022163,0.0004301,0.0034142
		c0.0000291,0.0002289,0.0000591,0.0004654,0.0000887,0.0006981c0.0001512,0.001194,0.0002904,0.0022926,0.0004425,0.0034866
		c0.0000176,0.0001373,0.0000424,0.0003357,0.0000601,0.000473c0.001195,0.0093803,0.0024171,0.0187721,0.0036621,0.028141
		c0.0000062,0.0000458,0.0000157,0.0001144,0.0000219,0.0001602c0.0001583,0.001194,0.0003438,0.0025864,0.0005031,0.0037766
		c0.0000186,0.0001373,0.0000391,0.0002937,0.0000577,0.0004349c0.0001593,0.0011902,0.0002985,0.0022278,0.0004587,0.003418
		c0.0000434,0.0003242,0.0000763,0.0005684,0.0001197,0.0008888c0.0001378,0.0010223,0.0003085,0.0022888,0.0004468,0.0033112
		c0.0000372,0.0002747,0.0000715,0.0005302,0.0001087,0.0008049c0.0001383,0.0010223,0.0003223,0.0023727,0.0004611,0.0033951
		c0.000031,0.0002289,0.0000567,0.0004196,0.0000882,0.0006485c0.0001621,0.0011902,0.0003324,0.0024376,0.0004959,0.0036278
		c0.0000124,0.0000916,0.0000196,0.0001488,0.0000319,0.0002403c0.0014911,0.0108833,0.0029802,0.0215034,0.0045385,0.0323715
		c0.0000067,0.0000458,0.0000119,0.0000839,0.0000186,0.0001297c0.0001702,0.0011864,0.0003614,0.0025177,0.0005326,0.0037041
		c0.0000267,0.0001831,0.0000443,0.000309,0.000071,0.0004921c0.0001955,0.0013542,0.0003352,0.0023232,0.0005322,0.0036774
		c0.00002,0.0001411,0.0000362,0.0002518,0.0000563,0.0003891c0.0001721,0.0011902,0.0003572,0.0024567,0.0005302,0.0036469
		c0.0000267,0.0001831,0.0000525,0.0003586,0.0000792,0.0005417c0.0001483,0.0010147,0.0003705,0.0025368,0.0005193,0.0035515
		c0.0000272,0.0001831,0.0000572,0.0003891,0.0000839,0.0005722c0.000174,0.0011864,0.0003486,0.0023766,0.0005236,0.0035629
		c0.0000205,0.0001373,0.0000582,0.0003929,0.0000787,0.0005302c0.000175,0.0011864,0.0003653,0.0024757,0.0005412,0.0036621
		c0.0000138,0.0000916,0.000021,0.0001411,0.0000348,0.0002327c0.0018096,0.012207,0.003623,0.0241432,0.0055175,0.0363197
		c0.0000072,0.0000458,0.0000153,0.0000992,0.0000224,0.000145c0.0002103,0.0013542,0.0003977,0.0025558,0.0006094,0.0039063
		c0.0000138,0.0000916,0.0000138,0.0000916,0.0000281,0.0001831c0.0002117,0.0013542,0.0003853,0.0024605,0.000598,0.0038147
		c0.0000215,0.0001373,0.0000305,0.0001907,0.000052,0.0003281c0.0758915,0.4828911,0.2181067,0.9441147,0.4171534,1.3746719
		l0.6807861-0.3146896C5.8883748,39.7827606,5.75,39.1525459,5.75,38.5V37.7575607L5.75,37.7575607z M7.8307323,42.2887611
		l-0.4055548,0.6308937c0.0015955,0.0010223,0.0031714,0.002037,0.0047679,0.0030594
		c0.0001388,0.0000916-0.0000839-0.0000534,0.0000548,0.0000343c0.0015965,0.0010262,0.0031266,0.0020027,0.0047245,0.0030289
		l0.0000496,0.0000305c0.0031457,0.0020103,0.0063171,0.0040359,0.0094671,0.0060425l0.0001874,0.0001183
		c0.0031505,0.0020065,0.00632,0.0040207,0.0094748,0.0060196l0.0001154,0.0000725
		c0.0032048,0.0020332,0.0062828,0.0039787,0.0094924,0.0060005l0.0001678,0.0001068
		c0.0079741,0.0050278,0.0159588,0.0100365,0.0239615,0.0150223c0.0001397,0.0000839-0.0000353-0.0000229,0.0001044,0.0000648
		c0.0032215,0.0020065,0.0063834,0.0039749,0.0096092,0.0059738c0.0001402,0.0000877-0.000113-0.0000725,0.0000272,0.0000191
		c0.4645085,0.2880898,0.9765859,0.5057831,1.5212464,0.6379547l0.0001669,0.000042
		c0.0037823,0.0009193,0.0074463,0.0018005,0.0112324,0.0027122l0.0000916,0.0000229
		c0.005619,0.0013504,0.0112667,0.0026932,0.0168924,0.0040283c0.000165,0.0000381-0.0000076-0.0000038,0.0001574,0.0000381
		c0.0037308,0.0008812,0.0074387,0.0017548,0.0111732,0.0026321c0.000165,0.0000343,0.0000963,0.0000229,0.0002613,0.0000572
		c0.0036745,0.0008621,0.0074911,0.0017509,0.0111694,0.0026054c0.000165,0.0000381,0.0000505,0.0000153,0.0002155,0.0000496
		c0.0037374,0.0008659,0.007473,0.0017281,0.0112133,0.0025864c0.000165,0.000042-0.0000029,0,0.0001621,0.0000381
		c0.0093803,0.0021553,0.018858,0.004303,0.0282564,0.0064049l0.0003376,0.0000763
		c0.0036879,0.000824,0.0074129,0.0016518,0.0111036,0.0024719c0.0001659,0.0000343,0.0001936,0.0000381,0.0003586,0.0000763
		c0.0055962,0.0012398,0.0111876,0.0024643,0.0167904,0.0036888c0.0001659,0.0000343,0.0000849,0.0000153,0.0002508,0.0000534
		c0.0036955,0.0008049,0.0075254,0.0016327,0.0112238,0.00243c0.0001659,0.0000381,0.0000801,0.0000153,0.000246,0.0000534
		c0.0036983,0.0007935,0.0074759,0.001606,0.0111771,0.0023956c0.0001659,0.0000343,0.000186,0.0000381,0.0003519,0.0000725
		c0.0037613,0.0008011,0.0074883,0.0015907,0.0112524,0.0023842l0.000082,0.0000153
		c0.0057354,0.0012093,0.0114155,0.0023956,0.0171576,0.0035858l0.0000143,0.0000038
		c0.003768,0.000782,0.0076008,0.0015678,0.0113726,0.0023384l0.0002193,0.0000458
		c0.0037708,0.0007744,0.0075302,0.0015411,0.0113039,0.0023041l0.000206,0.000042
		c0.0056314,0.0011368,0.0113983,0.0022964,0.0170364,0.003418c0.0001669,0.0000343,0.0000019,0,0.0001678,0.0000343
		c0.0037794,0.0007477,0.0074348,0.0014725,0.0112171,0.0022163c0.0001669,0.0000343,0.0002642,0.0000534,0.0004311,0.0000839
		c0.0037212,0.0007324,0.007391,0.0014496,0.0111151,0.0021706c0.0001678,0.0000343,0.0003128,0.0000648,0.0004797,0.0000954
		c0.0037251,0.0007248,0.0074291,0.0014381,0.011157,0.0021553c0.0001669,0.0000305,0.0001593,0.0000267,0.0003262,0.000061
		c0.0018635,0.0003548,0.0036983,0.0007095,0.0055628,0.0010605l0.0000134,0.0000038
		c0.0019245,0.0003662,0.0038252,0.0007286,0.0057507,0.0010948l0.0000668,0.0000153
		c0.0018644,0.000351,0.0036221,0.0006828,0.0054874,0.0010338l0.0003996,0.0000725
		c0.0036716,0.0006943,0.0074358,0.0013962,0.0111094,0.0020828c0.0001678,0.0000305,0.0004139,0.0000763,0.0005808,0.0001068
		c0.0036745,0.0006866,0.0073862,0.0013695,0.0110626,0.0020447c0.0001678,0.0000305,0.0003309,0.000061,0.0004988,0.0000916
		c0.0018082,0.0003319,0.0036697,0.0006752,0.0054779,0.0010033l0.0000381,0.0000038
		c0.0019293,0.0003548,0.003768,0.0006866,0.0056982,0.0010414l0.0002403,0.000042
		c0.0018091,0.0003281,0.0035925,0.0006485,0.0054026,0.0009766c0.0001678,0.0000305,0.0001831,0.0000343,0.000351,0.000061
		c0.0036802,0.0006638,0.0074501,0.001339,0.0111332,0.0019951c0.0001678,0.0000267,0.0004358,0.0000763,0.0006037,0.0001068
		c0.003684,0.0006523,0.007268,0.0012856,0.0109539,0.0019341c0.0003366,0.000061,0.0004539,0.0000801,0.0007906,0.0001373
		c0.003686,0.0006485,0.0072803,0.0012741,0.0109682,0.001915c0.0001688,0.0000267,0.0004234,0.0000687,0.0005913,0.0000992
		c0.0017538,0.0003052,0.003417,0.0005913,0.0051708,0.0008926l0.0003881,0.0000687
		c0.0018158,0.0003128,0.0037403,0.0006409,0.0055561,0.0009537c0.0001678,0.0000267,0.0002604,0.000042,0.0004292,0.0000687
		c0.0016937,0.0002899,0.0034733,0.0005951,0.005168,0.0008812c0.0001688,0.0000305,0.000411,0.0000687,0.0005789,0.0000992
		c0.0036936,0.0006256,0.0073271,0.0012398,0.0110226,0.0018578c0.0003376,0.0000534,0.0003729,0.000061,0.0007105,0.0001144
		c0.0036354,0.0006104,0.0073271,0.0012207,0.0109644,0.0018234c0.0001698,0.0000305,0.0006142,0.0000992,0.000783,0.0001297
		c0.0017576,0.0002899,0.003396,0.0005608,0.0051546,0.0008469c0.0001688,0.0000267,0.0001278,0.0000229,0.0002956,0.0000458
		c0.0018806,0.0003128,0.0036573,0.0005989,0.005538,0.0009079c0.0001688,0.0000267,0.000432,0.0000687,0.0006008,0.0000954
		c0.0016985,0.0002785,0.0033045,0.0005379,0.0050039,0.0008125c0.0001688,0.0000267,0.000494,0.0000801,0.0006628,0.0001068
		c0.0018816,0.0003014,0.0037069,0.0005951,0.0055895,0.0008965l0.0000181,0.0000038
		c0.0018215,0.0002899,0.0035543,0.0005684,0.0053759,0.0008583c0.0001698,0.0000267,0.0006151,0.0000992,0.0007839,0.0001259
		c0.0036449,0.0005798,0.0072803,0.001152,0.0109272,0.0017242c0.0003376,0.0000534,0.0005054,0.0000801,0.000843,0.0001373
		c0.0037079,0.0005798,0.0072756,0.001133,0.0109854,0.0017052c0.0001698,0.0000267,0.0004311,0.0000648,0.0006008,0.0000916
		c0.0017633,0.0002747,0.0034714,0.0005379,0.0052357,0.0008087l0.0003576,0.0000534
		c0.0018253,0.0002785,0.0037527,0.000576,0.005579,0.0008507c0.0001688,0.0000267,0.00033,0.0000496,0.0004997,0.0000763
		c0.0017033,0.0002594,0.0033379,0.0005112,0.0050421,0.0007668c0.0003386,0.0000496,0.0004005,0.000061,0.0007391,0.0001106
		c0.0018272,0.0002747,0.0037289,0.0005608,0.0055561,0.0008354h0.0000124
		c0.0017662,0.000267,0.0035572,0.0005341,0.0053244,0.0007973c0.0003386,0.0000496,0.0006552,0.0000954,0.0009937,0.0001488
		c0.0035954,0.0005302,0.0072451,0.0010719,0.0108423,0.0015984c0.0003395,0.0000496,0.0005341,0.0000763,0.0008736,0.0001259
		c0.001646,0.0002403,0.0033722,0.0004921,0.0050192,0.0007324c0.0001698,0.0000229,0.0002975,0.000042,0.0004673,0.0000687
		c0.0018301,0.0002632,0.0036764,0.0005302,0.0055065,0.0007973c0.0001698,0.0000229,0.0004921,0.0000687,0.0006618,0.0000916
		c0.0016479,0.0002365,0.0032215,0.0004654,0.0048695,0.0006981c0.0001698,0.0000267,0.00068,0.0000992,0.0008497,0.0001259
		c0.0018311,0.0002594,0.003644,0.000515,0.005476,0.0007782c0.0001698,0.0000229,0.0001497,0.0000191,0.0003195,0.0000458
		c0.0017099,0.0002365,0.0034361,0.0004845,0.005146,0.0007248c0.0003395,0.0000458,0.0005341,0.0000763,0.0008736,0.0001221
		c0.0036039,0.0005035,0.0071774,0.0010033,0.0107832,0.001503c0.0003405,0.0000458,0.0008144,0.0001106,0.0011539,0.0001602
		c0.0017729,0.0002441,0.0034714,0.0004768,0.0052443,0.000721l0.0000372,0.0000038
		c0.0018339,0.0002518,0.0036812,0.0005035,0.0055161,0.0007553c0.0003405,0.0000458,0.0005388,0.0000687,0.0008793,0.0001144
		c0.0016518,0.0002289,0.0033178,0.0004539,0.0049696,0.0006752c0.0001698,0.0000229,0.0003595,0.0000496,0.0005302,0.0000725
		c0.0017738,0.0002365,0.0036335,0.0004883,0.0054083,0.0007248c0.0003405,0.0000458,0.0006514,0.0000839,0.0009928,0.0001297
		c0.0014687,0.0001984,0.0030489,0.0004082,0.0045176,0.0006027c0.0003414,0.0000458,0.0007544,0.0000992,0.0010958,0.000145
		c0.0018368,0.0002441,0.0035629,0.0004692,0.0053997,0.0007133l0.0002613,0.0000343
		c0.0017147,0.0002213,0.0033588,0.0004387,0.0050745,0.0006599c0.0003414,0.0000458,0.0007963,0.0001068,0.0011377,0.0001488
		c0.0036144,0.0004692,0.0072222,0.0009384,0.0108395,0.0014c0.0001707,0.0000191,0.0007381,0.0000954,0.0009089,0.0001144
		c0.0015936,0.0002022,0.003293,0.0004196,0.0048876,0.0006218c0.0001707,0.0000229,0.0004845,0.000061,0.0006542,0.0000839
		c0.0017796,0.0002251,0.0035915,0.0004539,0.0053711,0.0006752c0.0001707,0.0000229,0.0007887,0.000103,0.0009594,0.0001221
		c0.0015335,0.0001907,0.0030823,0.0003853,0.0046158,0.000576c0.0003414,0.000042,0.0006781,0.0000839,0.0010195,0.0001259
		c0.0017805,0.0002213,0.0036259,0.0004501,0.0054064,0.0006714c0.0001707,0.0000191,0.0003204,0.0000343,0.0004902,0.0000572
		c0.0016584,0.000206,0.003253,0.0004005,0.0049114,0.0006027c0.0003414,0.000042,0.0007267,0.0000877,0.0010691,0.0001297
		c0.003623,0.0004425,0.0071402,0.0008698,0.010766,0.0013008c0.0003414,0.000042,0.0008774,0.0001068,0.0012197,0.000145
		c0.0017815,0.0002174,0.0034113,0.0004082,0.0051947,0.0006218l0.0000792,0.0000076
		c0.0018435,0.0002174,0.003623,0.0004272,0.0054674,0.0006447c0.0003414,0.000042,0.0006962,0.0000839,0.0010386,0.0001221
		c0.0015984,0.0001869,0.0031767,0.0003738,0.004776,0.0005608c0.0003424,0.0000381,0.0003891,0.0000458,0.0007315,0.0000801
		c0.0018454,0.0002174,0.0036144,0.0004234,0.0054607,0.0006332c0.0003424,0.000042,0.0003977,0.0000458,0.0007401,0.0000877
		c0.0016003,0.0001831,0.0032349,0.0003662,0.0048351,0.0005493c0.0003424,0.000042,0.0005493,0.0000648,0.0008917,0.000103
		c0.0017843,0.0002022,0.003684,0.0004196,0.0054693,0.000618l0.0004597,0.0000534
		c0.0016632,0.0001869,0.0032578,0.0003662,0.004921,0.0005531c0.0003424,0.0000381,0.0008869,0.0000992,0.0012293,0.0001373
		c0.0035725,0.0003967,0.0071573,0.0007935,0.0107317,0.0011864c0.000515,0.0000534,0.0006065,0.0000648,0.0011215,0.0001183
		c0.0016642,0.0001831,0.0032034,0.000351,0.0048676,0.0005302c0.0001717,0.0000191,0.000412,0.0000458,0.0005836,0.0000648
		c0.0017881,0.0001907,0.003685,0.0003967,0.0054731,0.0005875c0.0001707,0.0000153,0.0006762,0.0000725,0.0008478,0.0000916
		c0.0016041,0.0001717,0.0031919,0.0003395,0.004796,0.0005112c0.0001717,0.0000153,0.0006914,0.0000725,0.0008631,0.0000916
		c0.0017881,0.0001869,0.0037136,0.0003891,0.0055027,0.000576c0.0001717,0.0000191,0.0003138,0.0000343,0.0004854,0.0000496
		c0.0016661,0.0001755,0.0033016,0.0003433,0.0049686,0.0005188c0.0003433,0.0000343,0.0007143,0.0000763,0.0010576,0.0001106
		c0.003643,0.0003777,0.0071659,0.0007362,0.0108099,0.0011063c0.0003443,0.0000343,0.0008612,0.0000877,0.0012054,0.0001183
		c0.001729,0.0001755,0.003315,0.0003357,0.0050449,0.0005112l0.0003443,0.0000343
		c0.0018539,0.0001869,0.0036182,0.0003624,0.0054722,0.0005455c0.0003433,0.0000305,0.0006475,0.000061,0.0009918,0.0000954
		c0.0016069,0.0001602,0.0032053,0.0003166,0.0048122,0.0004768c0.0003443,0.0000305,0.0003881,0.0000343,0.0007324,0.0000687
		c0.0017929,0.0001755,0.0036364,0.000351,0.0054302,0.0005264c0.0003443,0.0000343,0.0005789,0.0000572,0.0009232,0.0000916
		c0.0015459,0.000145,0.0030785,0.0002975,0.0046244,0.0004425c0.0003443,0.0000343,0.0007782,0.0000725,0.0011225,0.0001068
		c0.0017939,0.0001717,0.0035648,0.0003395,0.0053596,0.0005074c0.0001726,0.0000191,0.0004501,0.000042,0.0006227,0.000061
		c0.0015469,0.000145,0.003232,0.0003014,0.0047798,0.0004463c0.0003443,0.0000343,0.0009241,0.0000877,0.0012693,0.0001183
		c0.0017328,0.0001602,0.0034142,0.0003166,0.0051479,0.0004768c0.0001717,0.0000153,0.0000782,0.0000076,0.0002508,0.0000229
		c0.0017958,0.000164,0.0035925,0.0003281,0.0053883,0.0004921c0.0005169,0.0000496,0.0006285,0.0000572,0.0011454,0.000103
		c0.0016727,0.0001526,0.0032597,0.0002975,0.0049324,0.0004463c0.0001726,0.0000153,0.0003366,0.0000305,0.0005093,0.0000458
		c0.0017967,0.000164,0.0036669,0.0003281,0.0054646,0.0004845c0.0003452,0.0000305,0.0006762,0.000061,0.0010214,0.0000916
		c0.0014877,0.0001335,0.0030327,0.000267,0.0045204,0.0003967c0.0005178,0.0000458,0.0006571,0.000061,0.001174,0.0001068
		c0.0017986,0.0001564,0.0035629,0.0003052,0.0053616,0.0004616c0.0001726,0.0000191,0.0005379,0.0000496,0.0007105,0.0000648
		c0.0015507,0.0001297,0.0031443,0.000267,0.0046949,0.0003967c0.0005178,0.0000458,0.0007563,0.0000687,0.0012741,0.0001106
		c0.0017996,0.0001564,0.0035906,0.0003052,0.0053902,0.0004539c0.0001726,0.0000153-0.0000229,0,0.0001488,0.0000153
		c0.0017385,0.000145,0.0034819,0.0002899,0.0052204,0.0004349c0.0003452,0.0000305,0.0009365,0.0000763,0.0012817,0.0001068
		c0.0016766,0.0001373,0.0033741,0.0002747,0.0050507,0.000412l0.000308,0.0000267
		c0.0018015,0.0001488,0.003602,0.0002937,0.0054026,0.0004387c0.0003462,0.0000267,0.0008497,0.0000687,0.001195,0.0000954
		c0.0015535,0.0001259,0.0031996,0.0002556,0.0047531,0.0003777c0.0003462,0.0000267,0.0003891,0.0000343,0.0007353,0.000061
		c0.0018015,0.0001411,0.0036011,0.0002823,0.0054035,0.0004234c0.0003462,0.0000267,0.0007458,0.0000572,0.001092,0.0000877
		c0.0014915,0.0001144,0.0030365,0.0002327,0.004529,0.0003471c0.0003452,0.0000305,0.0007429,0.000061,0.0010881,0.0000877
		c0.0018034,0.0001373,0.0036469,0.0002785,0.0054502,0.000412c0.0001736,0.0000153,0.0003595,0.0000305,0.0005322,0.000042
		c0.0016174,0.0001221,0.0032291,0.000248,0.0048466,0.0003662c0.0005198,0.000042,0.0008335,0.0000648,0.0013533,0.0000992
		c0.0017424,0.0001335,0.0034866,0.0002632,0.005229,0.0003891l0.0001221,0.0000114
		c0.0018053,0.0001297,0.0035257,0.0002556,0.005331,0.0003891c0.0005188,0.0000343,0.0008593,0.000061,0.001379,0.0000992
		c0.0014944,0.0001068,0.0030689,0.0002213,0.0045643,0.0003242c0.0001726,0.0000153,0.0007114,0.0000534,0.0008841,0.0000648
		c0.0018063,0.0001297,0.0035381,0.0002518,0.0053444,0.0003777c0.0003471,0.0000267,0.0008192,0.0000572,0.0011663,0.0000801
		c0.0014324,0.000103,0.0029478,0.000206,0.0043812,0.0003052c0.0005198,0.0000381,0.0007544,0.0000534,0.0012741,0.0000877
		c0.0018072,0.0001259,0.0034847,0.0002403,0.0052929,0.0003624c0.0003462,0.0000229,0.000577,0.0000381,0.0009241,0.000061
		c0.0014963,0.000103,0.0030785,0.0002098,0.0045748,0.000309c0.0005198,0.0000343,0.0007706,0.0000534,0.0012903,0.0000877
		c0.0018082,0.0001183,0.0036173,0.0002403,0.0054255,0.0003586l0.000062,0.0000038
		c0.0018091,0.0001183,0.0034971,0.0002251,0.0053062,0.0003433c0.0003471,0.0000229,0.0009327,0.000061,0.0012808,0.0000839
		c0.0016842,0.0001068,0.0033464,0.0002136,0.0050306,0.0003204c0.0001736,0.0000114,0.0002174,0.0000114,0.000391,0.0000267
		c0.0018101,0.0001106,0.0035954,0.0002213,0.0054054,0.0003357c0.0003471,0.0000191,0.0009069,0.0000534,0.0012541,0.0000763
		c0.0015612,0.0000992,0.0030651,0.0001907,0.0046253,0.0002823c0.0003471,0.0000229,0.0005131,0.0000343,0.0008602,0.0000572
		c0.0018101,0.0001068,0.0036201,0.0002174,0.0054312,0.0003242c0.0003481,0.0000229,0.0006447,0.000042,0.0009928,0.000061
		c0.0015612,0.0000916,0.003109,0.0001831,0.0046711,0.0002747c0.0003471,0.0000191,0.0007048,0.000042,0.0010519,0.000061
		c0.001812,0.0001068,0.0036821,0.0002174,0.0054951,0.0003204c0.0001736,0.0000114,0.0002975,0.0000153,0.0004721,0.0000267
		c0.0016251,0.0000916,0.0032825,0.0001869,0.0049076,0.0002785c0.0005217,0.0000305,0.0008383,0.0000496,0.0013599,0.0000763
		c0.00175,0.0000992,0.0034294,0.0001907,0.0051804,0.0002899l0.0002222,0.0000114
		c0.0018129,0.0000992,0.0035563,0.0001945,0.0053701,0.0002937c0.0005217,0.0000305,0.0008202,0.0000458,0.0013418,0.0000725
		c0.0015631,0.0000839,0.0030718,0.000164,0.0046349,0.000248c0.0001745,0.0000076,0.0006523,0.0000343,0.0008259,0.0000458
		c0.0018148,0.0000916,0.0035648,0.0001831,0.0053797,0.0002785c0.0003481,0.0000191,0.0007992,0.000042,0.0011473,0.000061
		c0.001502,0.0000763,0.0030746,0.0001564,0.0045767,0.0002327c0.000349,0.0000191,0.0007267,0.0000343,0.0010748,0.0000534
		c0.0018158,0.0000916,0.0035629,0.0001793,0.0053787,0.0002708c0.0003481,0.0000191,0.0006313,0.0000267,0.0009804,0.0000458
		c0.001502,0.0000725,0.0030117,0.0001488,0.0045147,0.0002213c0.0005226,0.0000267,0.0008135,0.0000381,0.0013371,0.0000648
		c0.0018158,0.0000877,0.0035505,0.0001717,0.0053682,0.0002556c0.0001736,0.0000076,0.0003319,0.0000153,0.0005064,0.0000267
		c0.0016289,0.0000725,0.0031805,0.000145,0.0048094,0.0002213c0.0005236,0.0000229,0.0010786,0.0000496,0.0016022,0.0000763
		c0.0016289,0.0000725,0.0031233,0.0001373,0.0047531,0.0002136c0.0001745,0.0000076,0.0003862,0.0000153,0.0005608,0.0000229
		c0.0017557,0.0000801,0.0035801,0.0001602,0.0053358,0.0002365c0.0005226,0.0000229,0.0008841,0.0000381,0.0014067,0.000061
		c0.0015049,0.0000687,0.0028858,0.0001259,0.0043907,0.0001907c0.000349,0.0000153,0.000782,0.0000343,0.0011311,0.0000496
		c0.0017557,0.0000725,0.0035343,0.0001488,0.005291,0.0002174c0.0005236,0.0000229,0.0007315,0.0000343,0.001255,0.0000534
		c0.0014429,0.000061,0.002903,0.0001221,0.0043468,0.0001755c0.000349,0.0000153,0.0009584,0.000042,0.0013075,0.0000572
		c0.0017576,0.0000687,0.0035734,0.0001411,0.005332,0.0002098c0.0001736,0.0000076,0.0006857,0.0000267,0.0008602,0.0000305
		c0.0015697,0.0000648,0.0030813,0.0001221,0.0046511,0.0001831c0.0005236,0.0000191,0.0008383,0.0000305,0.0013618,0.0000496
		c0.0016956,0.0000648,0.003314,0.0001259,0.0050106,0.0001869c0.0001745,0.0000076,0.0004787,0.0000153,0.0006533,0.0000267
		c0.0016956,0.0000572,0.0033417,0.0001183,0.0050373,0.0001793c0.0005245,0.0000191,0.0010366,0.0000381,0.0015612,0.0000572
		c0.0015078,0.0000496,0.0029287,0.000103,0.0044374,0.0001564c0.0001745,0.0000038,0.0008221,0.0000267,0.0009975,0.0000305
		c0.0017595,0.000061,0.0035362,0.0001221,0.0052958,0.0001831c0.00035,0.0000114,0.0010176,0.0000343,0.0013676,0.0000458
		c0.0013828,0.0000458,0.0029221,0.0000916,0.0043058,0.0001373c0.0005245,0.0000191,0.0007305,0.0000229,0.001256,0.000042
		c0.0018234,0.000061,0.0035334,0.0001106,0.0053577,0.0001678c0.00035,0.0000114,0.0006475,0.0000191,0.0009975,0.0000343
		c0.0015097,0.0000458,0.0030031,0.0000916,0.0045128,0.0001373c0.0005255,0.0000114,0.0008593,0.0000229,0.0013838,0.0000381
		c0.0018253,0.0000534,0.0036144,0.0001068,0.0054398,0.0001602c0.0001745,0.0000076-0.0000477,0,0.0001268,0.0000038
		c0.0016994,0.0000496,0.0035706,0.000103,0.00527,0.0001488c0.00035,0.0000114,0.0009947,0.0000267,0.0013447,0.0000381
		c0.0017633,0.0000458,0.0035276,0.0000954,0.005291,0.0001411l0.0000963,0.0000038
		c0.0018253,0.0000458,0.0037212,0.0000954,0.0055475,0.0001411c0.00035,0.0000114,0.000844,0.0000229,0.001194,0.0000343
		c0.0015116,0.0000343,0.0031347,0.0000763,0.0046463,0.0001144c0.000351,0.0000076,0.0006123,0.0000114,0.0009623,0.0000229
		c0.0018272,0.000042,0.0035582,0.0000801,0.0053854,0.0001221c0.000351,0.0000114,0.0008364,0.0000229,0.0011873,0.0000305
		c0.0015125,0.0000343,0.0029268,0.0000648,0.0044394,0.0000992c0.000351,0.0000076,0.0009594,0.0000229,0.0013103,0.0000267
		c0.0017653,0.000042,0.0035677,0.0000763,0.0053339,0.0001144c0.0001745,0.0000038,0.0007362,0.0000153,0.0009117,0.0000191
		c0.0015135,0.0000305,0.0030909,0.0000648,0.0046043,0.0000916c0.0005264,0.0000114,0.0008621,0.0000191,0.0013885,0.0000267
		c0.0017023,0.0000343,0.0034075,0.0000648,0.0051107,0.0000954c0.0001755,0.0000038,0.0003872,0.0000114,0.0005627,0.0000153
		c0.0017662,0.0000305,0.0034161,0.0000572,0.0051823,0.0000916c0.0005264,0.0000076,0.000865,0.0000114,0.0013914,0.0000229
		c0.0015774,0.0000267,0.0030575,0.0000534,0.0046349,0.0000763c0.0001755,0,0.0006809,0.0000114,0.0008564,0.0000153
		c0.0018311,0.0000305,0.003561,0.0000534,0.0053921,0.0000839c0.000351,0.0000038,0.0009174,0.0000114,0.0012693,0.0000153
		c0.0014515,0.0000229,0.0029497,0.0000458,0.0044022,0.0000648c0.0005274,0.0000076,0.0007524,0.0000114,0.0012789,0.0000191
		c0.001832,0.0000229,0.0036001,0.0000458,0.0054321,0.0000725c0.000351,0.0000038,0.0004053,0.0000038,0.0007563,0.0000076
		c0.0015793,0.0000191,0.0032158,0.000042,0.004796,0.0000572c0.000351,0.0000038,0.0008869,0.0000114,0.0012379,0.0000153
		c0.00177,0.0000191,0.0036745,0.0000381,0.0054436,0.000061c0.0001764,0,0.0003567,0,0.0005322,0.0000038
		c0.0016432,0.0000191,0.0032854,0.0000343,0.0049286,0.0000496c0.0003519,0.0000038,0.001092,0.0000076,0.0014439,0.0000114
		c0.0016441,0.0000153,0.003334,0.0000267,0.0049782,0.000042c0.0001755,0.0000038,0.0002718,0.0000038,0.0004482,0.0000038
		c0.001833,0.0000191,0.0035887,0.0000267,0.0054226,0.000042c0.0003519,0,0.0009737,0.0000076,0.0013256,0.0000076
		c0.0015182,0.0000114,0.0030403,0.0000229,0.0045586,0.0000305c0.0003519,0.0000038,0.0007172,0.0000038,0.0010691,0.0000076
		c0.0017719,0.0000076,0.0035582,0.0000191,0.0053301,0.0000267c0.0005283,0.0000038,0.0007954,0.0000038,0.0013237,0.0000038
		c0.0014563,0.0000076,0.0028744,0.0000153,0.0043306,0.0000191c0.0003519,0,0.0009756,0.0000038,0.0013275,0.0000038
		c0.0017719,0.0000076,0.0035572,0.0000114,0.0053301,0.0000153c0.0005283,0,0.0005398,0,0.0010681,0.0000038
		c0.0015192,0.0000038,0.0029659,0.0000038,0.0044861,0.0000038c0.0005283,0.0000038,0.000946,0.0000038,0.0014744,0.0000038
		C10.246376,43.75,10.2482262,43.75,10.25,43.75V43C9.3911295,43,8.5545578,42.7540588,7.8307323,42.2887611L7.8307323,42.2887611z
		 M16.2651196,43h-3v0.75h3V43L16.2651196,43z M22.2651215,43h-3v0.75h3V43L22.2651215,43z M28.2651215,43h-3v0.75h3V43
		L28.2651215,43z M33.1576767,41.4295807c-0.5678787,0.6588783-1.3038807,1.1374435-2.1284618,1.3839607l0.2148304,0.7185783
		c0.0067673-0.0020256,0.0134678-0.0040436,0.0202217-0.0060959c0.000061-0.0000153,0.0000725-0.0000191,0.0001335-0.0000381
		c0.0036983-0.0011215,0.0075264-0.0022888,0.011219-0.003418c0.0001812-0.0000572,0.0003014-0.0000916,0.0004787-0.0001488
		c0.0038567-0.0011787,0.0074272-0.0022774,0.011282-0.0034637c0.0000572-0.0000191,0.0000954-0.0000305,0.0001564-0.0000496
		c0.0036907-0.0011368,0.0074158-0.0022888,0.0111046-0.003437c0.0001755-0.0000572,0.0003853-0.0001221,0.0005627-0.0001793
		c0.0012817-0.0003967,0.0022564-0.0007019,0.0035419-0.0010986c0.0001774-0.0000572,0.0004616-0.000145,0.0006371-0.0002022
		c0.002243-0.0006981,0.0042801-0.0013351,0.0065231-0.0020409c0.0002956-0.0000916,0.0005684-0.0001755,0.0008621-0.000267
		c0.0011215-0.000351,0.0022373-0.0007057,0.0033588-0.0010567c0.0003548-0.0001106,0.0006618-0.0002098,0.0010166-0.0003204
		c0.002243-0.0007057,0.0041313-0.0013008,0.0063705-0.0020103c0.0002365-0.0000725,0.0004978-0.0001564,0.0007324-0.0002289
		c0.0011215-0.0003548,0.0022488-0.0007095,0.0033684-0.0010643c0.0002937-0.0000954,0.0007133-0.0002289,0.001009-0.0003204
		c0.0024014-0.0007629,0.0045376-0.001442,0.006937-0.0022087c0.0000572-0.0000191,0.000021-0.0000076,0.0000801-0.0000229
		c0.0011196-0.0003586,0.0021858-0.0006981,0.0033073-0.0010567c0.000412-0.0001335,0.0009727-0.0003128,0.0013885-0.0004425
		c0.0020771-0.0006638,0.0043373-0.0013885,0.0064125-0.0020561c0.0001183-0.0000381,0.0003109-0.0000992,0.0004311-0.0001373
		c0.0011158-0.0003586,0.0020981-0.000679,0.0032158-0.0010338c0.000473-0.0001564,0.0008926-0.0002899,0.0013657-0.0004425
		c0.0031929-0.00103,0.0067596-0.002182,0.0099487-0.0032158c0.0005341-0.0001755,0.0010948-0.0003586,0.0016232-0.0005264
		c0.0017567-0.0005722,0.0034618-0.0011292,0.0052166-0.0017014c0.0005283-0.0001717,0.0010681-0.000351,0.0015984-0.0005188
		c0.0009575-0.0003128,0.0019188-0.0006294,0.0028782-0.0009422c0.0005856-0.0001945,0.0011387-0.0003738,0.0017281-0.0005646
		c0.0009556-0.0003166,0.0020084-0.0006599,0.002964-0.0009727c0.0002956-0.0000992,0.0005627-0.0001869,0.0008583-0.0002823
		c0.0019112-0.0006256,0.0039349-0.0012894,0.005846-0.0019226c0.0005856-0.0001907,0.0011921-0.0003929,0.0017815-0.0005875
		c0.0009556-0.0003128,0.0019493-0.0006447,0.002903-0.0009575c0.0005302-0.0001755,0.0010414-0.0003471,0.0015717-0.0005226
		c0.0015907-0.0005264,0.0033798-0.0011177,0.0049706-0.0016479c0.0006447-0.0002136,0.0013866-0.0004578,0.0020332-0.0006752
		c0.0007954-0.0002632,0.0018311-0.0006065,0.0026264-0.0008736c0.0008221-0.0002747,0.0016575-0.0005531,0.0024776-0.0008278
		c0.0014305-0.0004768,0.0026207-0.0008736,0.0040512-0.0013542c0.0007629-0.0002518,0.0015163-0.0005074,0.0022812-0.0007629
		c0.0007935-0.000267,0.00177-0.0005951,0.0025635-0.0008621c0.000824-0.0002747,0.0016632-0.0005569,0.0024853-0.0008354
		c0.0014305-0.0004807,0.0025311-0.0008507,0.0039597-0.0013313c0.0007648-0.0002594,0.0015392-0.0005188,0.0023003-0.0007782
		c0.0009518-0.0003204,0.0015793-0.0005341,0.0025311-0.0008545c0.0008221-0.0002747,0.0016899-0.0005722,0.0025101-0.0008469
		c0.0012703-0.0004349,0.0024719-0.0008392,0.0037384-0.0012741c0.0009384-0.0003166,0.0017624-0.0005951,0.0026989-0.0009155
		c0.0006351-0.0002136,0.0016479-0.0005569,0.0022793-0.0007782c0.0009384-0.0003204,0.0019989-0.000679,0.0029373-0.0009995
		c0.0009499-0.0003242,0.0018768-0.0006409,0.0028267-0.0009689c0.001112-0.0003777,0.0021763-0.0007401,0.0032883-0.0011253
		c0.0007935-0.0002708,0.0013924-0.0004768,0.002182-0.0007477c0.0009346-0.0003242,0.0019341-0.0006638,0.0028687-0.000988
		c0.0009499-0.0003242,0.0019951-0.0006866,0.0029449-0.0010109c0.0011101-0.0003853,0.0022163-0.0007668,0.0033264-0.0011482
		c0.0007896-0.0002747,0.0013905-0.0004807,0.002182-0.0007553c0.0009937-0.0003433,0.0018997-0.0006561,0.0028934-0.0010033
		c0.0006313-0.0002174,0.0012703-0.0004387,0.0019016-0.0006599c0.0014038-0.0004845,0.0029449-0.0010223,0.0043468-0.0015106
		c0.0006313-0.0002174,0.0014095-0.0004883,0.0020428-0.0007095c0.0009899-0.0003471,0.0019054-0.0006638,0.0028992-0.0010109
		c0.0007896-0.0002785,0.0012836-0.0004501,0.0020733-0.0007286c0.0014591-0.0005074,0.0028725-0.0010033,0.0043278-0.0015144
		c0.0006332-0.0002213,0.001255-0.0004387,0.0018864-0.0006599c0.0010509-0.00037,0.0020199-0.0007095,0.0030689-0.0010796
		c0.0006294-0.0002213,0.0012512-0.0004387,0.0018845-0.0006599c0.0015125-0.0005341,0.0029659-0.001049,0.0044823-0.0015831
		c0.000473-0.0001678,0.0010872-0.0003853,0.0015621-0.0005531c0.0011654-0.000412,0.0023365-0.000824,0.0035019-0.001236
		c0.0004711-0.0001717,0.0011692-0.0004158,0.0016422-0.0005875c0.0015144-0.0005341,0.0030384-0.0010757,0.0045509-0.0016136
		c0.000473-0.0001717,0.0010338-0.00037,0.0015087-0.0005379c0.0011616-0.0004158,0.0023823-0.0008507,0.0035477-0.0012665
		c0.0006294-0.0002251,0.000927-0.0003319,0.0015564-0.0005569c0.0015697-0.0005608,0.0030766-0.0010986,0.0046463-0.0016632
		c0.0004711-0.0001678,0.0008755-0.0003128,0.0013485-0.0004807c0.0011597-0.0004158,0.0024338-0.0008736,0.0035954-0.0012932
		c0.0006294-0.0002251,0.0010548-0.0003777,0.0016842-0.0006065c0.0015678-0.0005646,0.0031109-0.0011215,0.0046787-0.0016861
		c0.0003147-0.0001144,0.0006275-0.0002289,0.0009403-0.0003395c0.0013371-0.0004845,0.0026321-0.0009499,0.0039673-0.0014343
		c0.0004711-0.0001717,0.0010719-0.0003853,0.0015411-0.0005608c0.0015678-0.0005684,0.00317-0.0011482,0.0047379-0.0017166
		c0.0003147-0.0001144,0.0004749-0.0001717,0.0007896-0.0002861c0.0013905-0.0005074,0.0028191-0.0010262,0.0042076-0.0015373
		c0.000473-0.0001717,0.0009251-0.0003357,0.0013962-0.0005112c0.0016251-0.0005913,0.0032825-0.0011978,0.0049057-0.0017891
		l0.0000134-0.0000038c0.0016804-0.000618,0.0033779-0.0012398,0.0050583-0.0018578
		c0.0003109-0.0001144,0.0006618-0.0002441,0.0009747-0.0003586c0.0033607-0.001236,0.0067139-0.0024719,0.0100689-0.0037117
		c0.0004692-0.0001755,0.0007534-0.0002785,0.0012226-0.0004539c0.0015602-0.000576,0.0030937-0.0011482,0.0046577-0.0017281
		c0.0001564-0.0000572,0.0001411-0.0000534,0.0002995-0.0001106c0.0016766-0.0006218,0.003294-0.0012245,0.0049686-0.0018501
		c0.0004692-0.0001755,0.0007095-0.0002632,0.0011787-0.0004349c0.001503-0.0005646,0.0030327-0.0011368,0.0045357-0.0016937
		c0.0001545-0.000061,0.0003052-0.0001144,0.0004635-0.0001755c0.0016766-0.0006256,0.0033321-0.0012474,0.0050106-0.0018768
		c0.0003109-0.0001183,0.0007515-0.0002823,0.0010643-0.0003967c0.0014439-0.0005455,0.0029793-0.0011215,0.0044212-0.001667
		c0.0001583-0.0000572,0.0005016-0.0001869,0.0006599-0.000248c0.0016727-0.0006294,0.0032921-0.0012398,0.0049667-0.001873
		c0.0003109-0.0001183,0.0007286-0.0002785,0.0010414-0.0003929c0.001442-0.0005455,0.0028973-0.0010986,0.0043373-0.0016441
		c0.0003128-0.0001183,0.0004807-0.0001793,0.0007935-0.0003014c0.0016708-0.0006294,0.0032482-0.0012321,0.0049191-0.0018654
		c0.0004692-0.0001793,0.0005856-0.0002251,0.0010529-0.0004005c0.0014992-0.0005722,0.0029182-0.0011139,0.0044155-0.0016823
		c0.0001564-0.000061,0.0004768-0.0001831,0.0006313-0.0002441c0.0017281-0.0006599,0.0034122-0.0013008,0.0051384-0.0019646
		c0.0003109-0.0001183,0.0002861-0.0001106,0.000597-0.0002289c0.0016117-0.000618,0.0030861-0.0011826,0.0046959-0.0018005
		c0.0001545-0.000061,0.0005093-0.0001984,0.0006638-0.0002556c0.0017242-0.0006638,0.0034504-0.0013275,0.0051765-0.0019951
		c0.0001564-0.0000572,0.0002098-0.0000763,0.0003662-0.0001373c0.0016098-0.0006218,0.0032463-0.0012589,0.0048561-0.0018768
		c0.0003128-0.0001221,0.0003395-0.0001335,0.0006504-0.0002518c0.0017834-0.0006905,0.003479-0.0013504,0.0052624-0.0020409l0,0
		c0.0017242-0.0006676,0.0034676-0.0013466,0.005188-0.002018c0.0001564-0.000061,0.0004234-0.000164,0.0005798-0.0002251
		c0.0035591-0.0013885,0.0069809-0.0027275,0.0105362-0.0041199c0.0001545-0.000061,0.000248-0.0000954,0.0004044-0.0001564
		c0.0035515-0.0013962,0.0070972-0.0027924,0.0106506-0.0041962l0.0003357-0.0001297
		c0.0035515-0.0014038,0.007164-0.0028343,0.0107117-0.0042419c0.0001526-0.0000648,0.0000877-0.0000381,0.0002422-0.0000992
		c0.0036049-0.0014343,0.0072193-0.0028725,0.0108166-0.0043144l0.0000839-0.0000305
		c0.0036564-0.0014648,0.0072517-0.0029068,0.0109062-0.0043831l0.0000343-0.0000114
		c0.6558952-0.2641563,1.2472763-0.6573257,1.7423096-1.1476555c0.0001144-0.0001183-0.000103,0.0000992,0.0000153-0.0000153
		c0.0055161-0.0054665,0.0109711-0.0108948,0.0164604-0.0163803l0.0000877-0.0000839
		c0.0027008-0.0027008,0.0054016-0.0054054,0.0080986-0.0081139c0.0001183-0.0001183,0.0000725-0.0000725,0.0001869-0.0001869
		c0.002655-0.0026627,0.0053177-0.0053406,0.0079651-0.0080109c0.0001144-0.0001144,0.0002251-0.0002251,0.0003395-0.0003433
		c0.0026474-0.0026665,0.005291-0.0053368,0.0079308-0.0080147c0.0001183-0.0001144,0.0000534-0.0000496,0.0001678-0.000164
		c0.0026436-0.0026779,0.0053291-0.0054016,0.0079651-0.0080833c0.0001144-0.0001183,0.0001755-0.0001793,0.0002899-0.0002937
		c0.0013199-0.0013428,0.0025177-0.0025635,0.0038376-0.0039063l0.0000916-0.0000916
		c0.001358-0.0013847,0.0026321-0.0026855,0.0039902-0.0040741l0.0001678-0.0001678
		c0.0012703-0.0013046,0.0026016-0.0026665,0.0038757-0.0039673c0.0001144-0.0001183,0.0000076-0.0000076,0.0001221-0.0001259
		c0.0013161-0.0013466,0.002636-0.002697,0.003952-0.0040474c0.0001144-0.0001144,0.000145-0.0001488,0.0002594-0.000267
		c0.0012283-0.0012589,0.0023994-0.0024605,0.003624-0.0037231c0.0001144-0.0001144,0.0002975-0.0003014,0.000412-0.0004234
		c0.0013123-0.0013466,0.0025826-0.0026588,0.0038948-0.0040054l0.0000153-0.0000153
		c0.0012703-0.0013084,0.0024948-0.0025749,0.0037651-0.0038834c0.0002289-0.0002327,0.0002518-0.0002594,0.0004807-0.0004997
		c0.0012665-0.0013046,0.0025482-0.0026321,0.0038109-0.0039368l0.0001335-0.0001373
		c0.0012207-0.0012665,0.0024185-0.0025024,0.0036392-0.0037727c0.0001144-0.0001183,0.0004463-0.0004616,0.0005608-0.0005798
		c0.0024834-0.0025749,0.0050011-0.0051918,0.0074806-0.0077744c0.0002251-0.0002365,0.0004272-0.0004425,0.0006523-0.000679
		c0.0024376-0.0025368,0.004982-0.0051956,0.007412-0.00774c0.0002289-0.0002365,0.0004425-0.0004654,0.0006714-0.0007019
		c0.00243-0.0025406,0.0049477-0.0051842,0.0073738-0.0077324c0.0002251-0.0002365,0.0004845-0.0005074,0.0007095-0.0007477
		c0.0010872-0.0011406,0.0021553-0.0022621,0.0032387-0.0034065c0.0002289-0.0002365,0.0002747-0.0002861,0.0005035-0.0005264
		c0.0011673-0.0012283,0.0023727-0.0025024,0.0035439-0.0037346c0.0003357-0.0003586,0.0004921-0.0005264,0.0008354-0.0008812
		c0.0009995-0.0010567,0.0020523-0.0021667,0.0030518-0.0032272c0.0001106-0.0001183,0.0004997-0.0005264,0.0006142-0.0006485
		c0.0011635-0.001236,0.0023079-0.0024452,0.0034752-0.0036812c0.0002251-0.0002403,0.0006866-0.0007286,0.0009117-0.0009651
		c0.0009575-0.0010147,0.0018845-0.0020027,0.0028419-0.0030174c0.0002251-0.0002403,0.0006409-0.000679,0.0008659-0.0009193
		c0.0011215-0.001194,0.0022392-0.0023804,0.0033607-0.0035744c0.0003357-0.0003548,0.0006943-0.0007362,0.00103-0.0010986
		c0.0009155-0.0009727,0.0017624-0.001873,0.0026741-0.0028496c0.0003357-0.0003586,0.0005989-0.0006332,0.0009346-0.0009956
		c0.0011177-0.001194,0.0022278-0.0023804,0.0033493-0.0035744c0.0003357-0.0003624,0.0006828-0.0007324,0.0010185-0.0010948
		c0.0008698-0.000927,0.0017433-0.0018616,0.0026093-0.0027962c0.0003395-0.0003586,0.0007286-0.0007782,0.0010643-0.0011406
		c0.0011215-0.001194,0.0022354-0.0023918,0.0033493-0.0035896c0.0003357-0.0003624,0.0005379-0.0005798,0.0008698-0.0009384
		c0.0008698-0.0009308,0.00177-0.0018959,0.002636-0.0028305c0.0004463-0.0004807,0.0006905-0.0007401,0.0011368-0.0012245
		c0.0010719-0.0011559,0.0021324-0.0022964,0.0032043-0.0034523c0.0004501-0.0004845,0.0007591-0.0008202,0.0012093-0.0013008
		c0.0007401-0.0008011,0.0014877-0.0016136,0.0022316-0.0024147c0.0004463-0.0004807,0.0010185-0.0010986,0.001461-0.0015793
		c0.00103-0.0011139,0.0020409-0.0022049,0.003067-0.0033226c0.0003357-0.0003624,0.0007896-0.0008507,0.0011215-0.0012169
		c0.000782-0.0008469,0.0015717-0.0016975,0.0023499-0.0025444c0.0003357-0.0003624,0.0009575-0.0010414,0.0012894-0.0014
		c0.0009842-0.0010719,0.0019569-0.0021248,0.0029449-0.0031967c0.0004425-0.0004845,0.0008926-0.0009766,0.0013351-0.001461
		c0.0007782-0.0008507,0.0014915-0.0016251,0.0022736-0.0024757c0.0004425-0.0004807,0.0010452-0.0011406,0.0014915-0.0016251
		c0.0008583-0.0009384,0.0017281-0.0018883,0.0025902-0.0028305c0.0004425-0.0004807,0.0009499-0.0010376,0.0013962-0.0015221
		c0.0008163-0.0008965,0.0016174-0.0017738,0.0024338-0.0026665c0.0004463-0.0004883,0.000988-0.0010834,0.0014305-0.0015678
		c0.0007782-0.0008507,0.0016098-0.0017624,0.0023842-0.0026169c0.0005531-0.0006065,0.0010376-0.0011368,0.0015907-0.0017471
		c0.0008202-0.0008965,0.0016747-0.0018349,0.002491-0.0027313c0.0004387-0.0004883,0.0010681-0.0011787,0.0015106-0.0016632
		c0.0006905-0.0007629,0.0013962-0.0015373,0.0020905-0.0023041c0.0005493-0.0006065,0.0010414-0.0011482,0.0015945-0.0017548
		c0.0008545-0.000946,0.0017776-0.0019646,0.0026321-0.0029068c0.0005493-0.0006104,0.0009613-0.0010681,0.0015106-0.0016785
		c0.0006561-0.0007172,0.0013657-0.0015068,0.0020142-0.0022278c0.0005531-0.0006104,0.0013046-0.0014381,0.0018539-0.0020523
		c0.0008163-0.0008965,0.0016212-0.0017967,0.0024338-0.002697c0.0005493-0.0006104,0.0011368-0.0012589,0.0016861-0.0018692
		c0.0006104-0.000679,0.0011139-0.001236,0.0017204-0.001915c0.0005493-0.0006104,0.0010033-0.0011139,0.0015526-0.0017242
		c0.0009727-0.0010834,0.0018539-0.0020676,0.0028305-0.0031509c0.0006561-0.0007324,0.0011177-0.0012474,0.0017738-0.0019836
		c0.0005264-0.0005875,0.0010033-0.0011139,0.0015297-0.0017014c0.0007668-0.0008583,0.0015717-0.0017624,0.0023384-0.0026169
		c0.0007286-0.0008163,0.0014305-0.0015984,0.0021591-0.0024147c0.0006523-0.0007362,0.0012283-0.0013771,0.0018845-0.0021133
		c0.0004845-0.0005417,0.000885-0.000988,0.0013695-0.0015297c0.0006523-0.0007362,0.0012016-0.0013542,0.0018578-0.0020905
		c0.0006866-0.0007706,0.0013847-0.0015526,0.0020714-0.002327c0.0007629-0.0008545,0.0016403-0.0018425,0.0024071-0.0027046
		c0.0005226-0.0005913,0.0010338-0.0011673,0.0015602-0.0017586c0.0006523-0.0007362,0.0011215-0.0012589,0.00177-0.0019989
		c0.0004845-0.0005417,0.000988-0.0011139,0.0014725-0.0016556c0.001091-0.0012283,0.002079-0.0023499,0.0031662-0.0035782
		c0.0004005-0.0004578,0.0008011-0.0009003,0.0011978-0.001358c0.0006561-0.0007401,0.0013275-0.0014992,0.0019798-0.0022354
		c0.0003586-0.000412,0.0006676-0.0007553,0.0010262-0.0011673c0.0011978-0.0013542,0.0024796-0.0028114,0.0036736-0.0041656
		c0.0003624-0.000412,0.0006714-0.0007629,0.0010338-0.0011749c0.0007553-0.0008621,0.0013771-0.0015717,0.00214-0.0024338
		c0.0001602-0.0001793,0.0003967-0.0004501,0.0005569-0.0006332c0.0014114-0.001606,0.0028114-0.0032043,0.0042191-0.0048103
		c0.0002403-0.0002747,0.0004997-0.0005722,0.0007439-0.0008469c0.0007553-0.0008659,0.0014572-0.001667,0.0022163-0.002533
		c0.0002403-0.0002747,0.0004463-0.0005112,0.0006866-0.0007858c0.001297-0.0014839,0.0027237-0.0031166,0.0040169-0.0046005
		c0.0002823-0.0003204,0.0006104-0.0006981,0.0008888-0.0010185c0.0006447-0.0007401,0.0015106-0.0017319,0.0021553-0.0024757
		c0.0002441-0.0002747,0.0004349-0.0004959,0.0006752-0.0007706c0.0014-0.0016136,0.0028496-0.0032806,0.0042534-0.0048943
		c0.0001984-0.0002289,0.0003586-0.000412,0.0005569-0.0006409c0.0007553-0.0008698,0.0014496-0.0016708,0.0022049-0.0025406
		c0.0002747-0.0003204,0.0005112-0.0005875,0.0007896-0.0009079c0.0015068-0.0017395,0.0029793-0.0034447,0.0044823-0.0051842
		c0.0000381-0.0000458,0.0001297-0.0001488,0.0001717-0.0001945c0.0008583-0.0009956,0.0015984-0.0018501,0.0024529-0.0028458
		c0.0000839-0.0000916,0.0001793-0.000206,0.0002594-0.0002975c0.0006447-0.0007477,0.001503-0.0017395,0.0021439-0.0024872
		L33.1576767,41.4295807L33.1576767,41.4295807z M35,36.2273216h-0.75V38.5c0,0.2078171-0.0144806,0.4168549-0.0430412,0.6213074
		l0.7427864,0.1037712c0.010601-0.0759163,0.0195694-0.1523247,0.0268555-0.2292137
		c0.0000153-0.0001678,0.0000153-0.0001221,0.0000267-0.0002975c0.0005226-0.0054932,0.0010376-0.011013,0.0015411-0.0165138
		c0.0000153-0.0001755,0.0000229-0.0002365,0.0000343-0.0004082c0.0003395-0.003685,0.0006714-0.0073471,0.0009995-0.0110321
		l0.0000153-0.000164c0.0001526-0.0017509,0.0003128-0.0035362,0.0004692-0.0052834l0.0000343-0.0004082
		c0.0003204-0.0036278,0.0006371-0.0072594,0.0009499-0.0108871c0.0000267-0.0003471,0.0000191-0.0002403,0.0000496-0.0005875
		c0.0001411-0.0016441,0.0002823-0.0032883,0.0004234-0.0049324c0.0000114-0.0001717,0.0000305-0.0003548,0.0000458-0.0005264
		c0.0003052-0.0036011,0.0006065-0.0071983,0.0009041-0.0108032c0.0000153-0.0001678,0.000042-0.0005188,0.0000572-0.0006905
		c0.000145-0.0017509,0.0002861-0.0034981,0.0004311-0.0052452c0.0000153-0.0001755-0.0000114,0.0001335,0.0000038-0.0000381
		c0.0001488-0.0018539,0.0003014-0.0037117,0.0004501-0.0055656c0.0000153-0.0001717,0.0000114-0.0000992,0.0000229-0.0002747
		c0.0001335-0.0016899,0.0002708-0.0033836,0.0004082-0.0050774c0.0000114-0.0001678,0.000042-0.0005531,0.0000572-0.0007286
		c0.0001373-0.0017509,0.0002785-0.0035248,0.0004158-0.0052757v-0.0000305
		c0.000145-0.001812,0.0002861-0.0036316,0.0004234-0.0054474c0.0000153-0.0001717,0.0000343-0.0004196,0.0000458-0.0005913
		c0.0001259-0.0015907,0.000248-0.0031967,0.00037-0.0047874c0.0000267-0.0003471,0.0000381-0.000473,0.000061-0.0008163
		c0.000267-0.003521,0.0005341-0.0070457,0.0007935-0.0105705c0.0000267-0.0003471,0.0000534-0.0006752,0.0000763-0.0010262
		c0.0001106-0.0014877,0.0002213-0.0029984,0.0003319-0.0044861c0.0000114-0.0001717,0.0000496-0.0006866,0.000061-0.0008583
		c0.0001297-0.0017738,0.0002594-0.0035439,0.0003853-0.0053177l0.0000191-0.0002556
		c0.0001183-0.0016212,0.0002327-0.0032349,0.0003471-0.0048599c0.0000381-0.0005188,0.0000534-0.0007591,0.0000916-0.0012817
		c0.0000992-0.0014153,0.0001984-0.0028114,0.0002975-0.0042267c0.0000229-0.0003471,0.0000458-0.0007095,0.0000687-0.0010529
		c0.0001221-0.0016975,0.0002403-0.003418,0.0003586-0.0051155c0.0000229-0.0003471,0.000042-0.000618,0.0000648-0.0009651
		c0.0000954-0.0014153,0.0001945-0.0028458,0.0002861-0.0042648c0.0000229-0.0003433,0.0000687-0.0009613,0.0000916-0.0013046
		c0.0001068-0.0015526,0.000206-0.0030975,0.0003128-0.0046463c0.0000076-0.0001755,0.0000229-0.000351,0.0000305-0.0005226
		c0.0001144-0.0017281,0.0002289-0.0034599,0.0003433-0.005188c0.0000343-0.0005226,0.000042-0.0006218,0.0000725-0.0011406
		c0.0000954-0.0014191,0.0001831-0.0028038,0.0002747-0.0042191c0.0000229-0.000351,0.0000534-0.0008125,0.0000763-0.0011597
		c0.0002174-0.0034561,0.0004387-0.006916,0.0006523-0.010376c0.0000229-0.0003471,0.0000648-0.0009956,0.0000839-0.0013428
		c0.0000801-0.0013008,0.000164-0.0026283,0.0002441-0.0039291c0.0000305-0.0005226,0.0000534-0.0008698,0.0000839-0.0013924
		c0.000103-0.0016975,0.000206-0.0033951,0.000309-0.0050926c0.0000076-0.0001755,0.0000229-0.0003891,0.0000343-0.0005646
		c0.0000877-0.0015259,0.0001793-0.0030289,0.000267-0.0045547c0.0000305-0.0005188,0.0000572-0.0009842,0.0000916-0.001503
		c0.0000763-0.0013351,0.0001564-0.0026817,0.0002327-0.0040131c0.0000191-0.000351,0.0000458-0.0008163,0.0000648-0.0011635
		c0.0000992-0.0016861,0.0001945-0.0033646,0.0002899-0.0050507c0.0000191-0.000351,0.0000496-0.0008812,0.0000687-0.0012283
		c0.0000763-0.0013199,0.0001488-0.0026283,0.0002213-0.0039482c0.0000305-0.0005188,0.000061-0.0010796,0.0000916-0.0016022
		c0.0000725-0.0013771,0.0001526-0.0027771,0.0002251-0.0041504c0.0000114-0.0001755,0.000042-0.0007858,0.0000534-0.0009613
		c0.0000877-0.0016708,0.0001793-0.0033646,0.0002708-0.0050392c0.0000267-0.0005226,0.0000458-0.0009041,0.0000763-0.0014267
		c0.0000687-0.0012589,0.0001297-0.0024948,0.0001984-0.0037575c0.0000267-0.0005188,0.000061-0.0011292,0.0000877-0.0016479
		c0.0000839-0.0016174,0.0001678-0.0032578,0.0002518-0.0048752c0.0000076-0.0001755-0.0000038,0.0000381,0.0000038-0.0001373
		c0.0000916-0.0017204,0.0001755-0.0034294,0.0002632-0.0051498c0.0000153-0.000351,0.0000534-0.0010834,0.0000725-0.0014305
		c0.000061-0.0012779,0.0001221-0.0025444,0.0001869-0.0038185c0.0000267-0.0005264,0.0000496-0.0010071,0.0000763-0.0015335
		c0.0000801-0.0016594,0.000164-0.0033493,0.0002403-0.0050125c0.0000191-0.0003433,0.0000229-0.000412,0.0000381-0.0007591
		c0.0000687-0.001442,0.0001373-0.0028801,0.000206-0.0043182c0.0000229-0.0005226,0.0000534-0.0011902,0.0000801-0.0017128
		c0.0000534-0.0012016,0.0001106-0.0024338,0.000164-0.0036316c0.0000267-0.0005264,0.0000496-0.0010376,0.0000725-0.0015602
		c0.0000801-0.0016785,0.0001526-0.0033226,0.0002251-0.0050011c0.0000191-0.0003471,0.0000381-0.0007324,0.0000496-0.0010796
		c0.000061-0.0013237,0.0001183-0.0026512,0.0001755-0.0039749c0.0000305-0.0006981,0.0000496-0.0010757,0.0000763-0.0017738
		c0.0000572-0.0012779,0.0001106-0.0025826,0.0001678-0.0038605c0.0000114-0.000351,0.0000381-0.0009041,0.0000534-0.001255
		c0.0000687-0.0016518,0.0001411-0.0033112,0.0002098-0.0049629c0.0000191-0.0005226,0.0000381-0.0009995,0.000061-0.0015221
		c0.0000496-0.0012321,0.0000992-0.002449,0.0001488-0.0036812c0.0000191-0.0005264,0.0000458-0.0011559,0.0000687-0.0016785
		c0.0000572-0.0014305,0.0001144-0.0028534,0.0001717-0.0042801c0.0000114-0.0003471,0.0000191-0.0004997,0.0000305-0.0008469
		c0.0000687-0.0016975,0.0001335-0.0033646,0.0001984-0.0050621c0.0000114-0.000351,0.000042-0.0010796,0.0000534-0.0014305
		c0.0000458-0.0012474,0.0000916-0.0024948,0.0001373-0.0037422c0.0000267-0.0006981,0.0000381-0.0009842,0.0000648-0.0016823
		c0.000061-0.0016518,0.0001183-0.0032959,0.0001793-0.0049515c0.0000153-0.0003471,0.0000191-0.0004654,0.0000305-0.0008163
		c0.0000496-0.0014114,0.000103-0.0028229,0.0001526-0.0042381c0.0000153-0.0005264,0.0000458-0.0013313,0.000061-0.0018578
		c0.000042-0.0011787,0.0000839-0.0023766,0.0001221-0.0035515c0.0000191-0.0005226,0.0000343-0.0010452,0.0000534-0.0015717
		c0.0000572-0.0016365,0.0001106-0.0032883,0.000164-0.0049248c0.0000191-0.0005264,0.0000267-0.0008049,0.000042-0.0013313
		c0.000042-0.0012932,0.0000839-0.0026054,0.0001297-0.0039024c0.0000191-0.0007019,0.0000267-0.0009766,0.0000496-0.0016747
		c0.000042-0.001255,0.0000763-0.002491,0.0001183-0.0037422c0.0000076-0.000351,0.0000343-0.0011177,0.000042-0.0014725
		c0.0000496-0.0016518,0.0000992-0.0032921,0.0001488-0.0049438c0.0000153-0.0005264,0.0000267-0.0008888,0.000042-0.0014153
		c0.0000381-0.0012817,0.0000725-0.0025444,0.0001106-0.0038261c0.0000153-0.0005264,0.0000305-0.001091,0.0000458-0.0016136
		c0.000042-0.0014954,0.0000839-0.0029945,0.0001259-0.0044823c0.0000038-0.0001793,0.0000114-0.000473,0.0000153-0.0006447
		c0.0000458-0.0016861,0.0000916-0.0033836,0.0001335-0.0050697c0.0000153-0.0005264,0.0000267-0.0009995,0.000042-0.0015221
		c0.0000305-0.0012703,0.0000648-0.0025597,0.0000954-0.0038261c0.0000114-0.000351,0.0000305-0.001152,0.0000381-0.0014992
		c0.0000458-0.0016861,0.0000877-0.0034027,0.0001259-0.0050888c0.0000038-0.0001755,0.0000076-0.0002747,0.0000114-0.0004539
		c0.0000343-0.0015488,0.0000725-0.0031433,0.0001106-0.0046921c0.0000114-0.0005264,0.0000229-0.0010376,0.0000343-0.001564
		c0.0000267-0.0012512,0.0000572-0.0025063,0.0000839-0.0037613c0.0000114-0.0005264,0.0000229-0.0010529,0.0000343-0.0015793
		c0.0000343-0.0016556,0.0000725-0.003334,0.0001068-0.0049934c0.0000038-0.0003471,0.0000153-0.0006943,0.0000191-0.001049
		c0.0000305-0.0013733,0.0000572-0.0027275,0.0000839-0.0041046c0.0000114-0.0005264,0.0000229-0.0011406,0.0000343-0.0016632
		c0.0000229-0.0013046,0.0000496-0.0025749,0.0000725-0.0038757c0.0000076-0.000351,0.0000191-0.0010147,0.0000229-0.0013657
		c0.0000343-0.0016594,0.000061-0.0033112,0.0000916-0.0049706c0.0000114-0.0005264,0.0000153-0.0009422,0.0000229-0.0014687
		c0.0000229-0.0012589,0.0000458-0.0025406,0.0000687-0.0037994c0.0000076-0.0005264,0.0000153-0.0010529,0.0000229-0.0015793
		c0.0000229-0.0014381,0.0000458-0.0028839,0.0000687-0.0043182c0.0000076-0.000351,0.0000114-0.0005531,0.0000153-0.0009041
		c0.0000267-0.0017052,0.0000496-0.0033989,0.0000763-0.0051003c0.0000038-0.0005264,0.0000114-0.0008278,0.0000153-0.0013542
		c0.0000229-0.0013313,0.0000381-0.0026512,0.0000534-0.0039825c0.0000076-0.000351,0.0000153-0.0010643,0.0000229-0.0014153
		c0.0000229-0.0017357,0.000042-0.0034637,0.0000648-0.0051994v-0.000042
		c0.0000191-0.0016937,0.000042-0.0033875,0.0000572-0.0050774c0.0000076-0.0005302,0.0000114-0.0010605,0.0000153-0.0015907
		c0.0000153-0.0012703,0.0000267-0.002552,0.000042-0.0038223c0.0000038-0.0005302,0.0000076-0.0008926,0.0000153-0.0014229
		c0.0000153-0.0016899,0.0000305-0.0033836,0.0000458-0.0050735c0.0000038-0.0003548,0.0000038-0.0006981,0.0000076-0.001049
		c0.0000114-0.0014114,0.0000229-0.0027962,0.0000343-0.0042038c0.0000076-0.0005264,0.0000076-0.0010147,0.0000114-0.0015411
		c0.0000114-0.0013809,0.0000191-0.0027657,0.0000305-0.0041428c0-0.0003548,0.0000038-0.0007095,0.0000076-0.0010605
		c0.0000114-0.001709,0.0000229-0.0034409,0.0000305-0.005146c0.0000038-0.0003548,0.0000038-0.0009079,0.0000038-0.0012589
		c0.0000114-0.0013199,0.0000153-0.0026283,0.0000229-0.0039482c0-0.0005302,0.0000038-0.0011559,0.0000076-0.0016861
		c0.0000076-0.0014381,0.0000114-0.0028801,0.0000153-0.0043182c0-0.0003548,0-0.0004425,0-0.0007935
		c0.0000076-0.001709,0.0000153-0.0033989,0.0000153-0.0051117c0.0000038-0.0005264,0.0000038-0.0009232,0.0000038-0.0014534
		c0.0000038-0.0013046,0.0000038-0.0026169,0.0000038-0.0039215c0.0000038-0.0005302,0.0000038-0.0009651,0.0000038-0.0014954
		C35,38.5034409,35,38.501709,35,38.5V36.2273216L35,36.2273216z M35,30.2273216h-0.75v3H35V30.2273216L35,30.2273216z
		 M35,24.2273216h-0.75v3H35V24.2273216L35,24.2273216z M35,18.2273197h-0.75v3.0000019H35V18.2273197L35,18.2273197z
		 M35,12.2273197h-0.75v3H35V12.2273197L35,12.2273197z M32.5620956,7.0721951l-0.4037476,0.6320477
		c0.7309952,0.4669571,1.3101807,1.1277227,1.6749306,1.9108725l0.6798744-0.3166504
		C34.0874748,8.3844995,33.4059486,7.6112423,32.5620956,7.0721951L32.5620956,7.0721951z"/>
</g>
<g>
	<path class="st0" d="M24.9515381,25.7734375l-4.5,4.5c-0.1201172,0.1270752-0.2709961,0.1907959-0.4519043,0.1907959
		s-0.3310547-0.0637207-0.4519043-0.1907959l-4.5-4.5c-0.2076416-0.2010498-0.2545166-0.4321289-0.140625-0.6932373
		C15.0209961,24.8125,15.21875,24.6784668,15.5,24.6784668h2.571167v-4.5c0-0.1743164,0.0637207-0.3248291,0.1907959-0.4519043
		c0.1274414-0.1274414,0.2779541-0.1907959,0.4522705-0.1907959h2.5715332c0.173584,0,0.3244629,0.0633545,0.4519043,0.1907959
		c0.126709,0.1270752,0.1904297,0.2775879,0.1904297,0.4519043v4.5h2.5715332c0.28125,0,0.4790039,0.1340332,0.5925293,0.4017334
		C25.2064209,25.3413086,25.1595459,25.5723877,24.9515381,25.7734375z"/>
</g>
</svg>
