<?xml version="1.0" encoding="utf-8"?>
<!-- Generator: Adobe Illustrator 21.0.2, SVG Export Plug-In . SVG Version: 6.00 Build 0)  -->
<svg version="1.1" id="Слой_1" xmlns="http://www.w3.org/2000/svg" xmlns:xlink="http://www.w3.org/1999/xlink" x="0px" y="0px"
	 width="24px" height="24px" viewBox="0 0 24 24" style="enable-background:new 0 0 24 24;" xml:space="preserve">
<g>
	<path d="M16.4365234,13.5625c0,0.9970703-0.25,1.8637695-0.7480469,2.6005859
		c-0.1865234,0.2827148-0.4443359,0.574707-0.7753906,0.8759766c-0.3320313,0.3012695-0.6425781,0.5263672-0.9326172,0.675293
		c-0.1191406,0.0742188-0.2197266,0.1113281-0.3007813,0.1113281c-0.0527344,0-0.1083984-0.0219727-0.1679688-0.0668945
		c-0.0595703-0.0444336-0.0888672-0.0893555-0.0888672-0.1337891c0-0.0668945,0.0703125-0.1787109,0.2119141-0.3349609
		s0.2978516-0.3271484,0.46875-0.5131836s0.3271484-0.4370117,0.46875-0.753418s0.2119141-0.6455078,0.2119141-0.987793
		c0-0.5654297-0.1298828-1.0488281-0.390625-1.4506836c-0.2158203-0.3125-0.3867188-0.46875-0.5136719-0.46875
		c-0.0214844,0-0.0332031,0.0185547-0.0332031,0.0556641c0,0.0893555,0.0283203,0.2216797,0.0839844,0.3959961
		c0.0556641,0.175293,0.0839844,0.3110352,0.0839844,0.4077148c0,0.1635742-0.0800781,0.2939453-0.2402344,0.390625
		s-0.3261719,0.1450195-0.4970703,0.1450195c-0.4912109,0-0.7363281-0.2827148-0.7363281-0.8481445
		c0-0.1118164,0.0058594-0.2753906,0.0166016-0.4912109c0.0117188-0.2158203,0.0166016-0.3793945,0.0166016-0.4912109
		c0-0.1855469-0.0371094-0.3569336-0.1113281-0.5131836c-0.0966797-0.1860352-0.2529297-0.3852539-0.46875-0.597168
		s-0.4052734-0.3178711-0.5693359-0.3178711c-0.0371094,0-0.0634766,0.0014648-0.078125,0.0053711
		s-0.0273438,0.0131836-0.0390625,0.027832c-0.0107422,0.0151367-0.0166016,0.0375977-0.0166016,0.0668945
		c0,0.0151367,0.0595703,0.1118164,0.1787109,0.2905273c0.1191406,0.1782227,0.1787109,0.3793945,0.1787109,0.6025391
		c0,0.2753906-0.0712891,0.5283203-0.2119141,0.7587891c-0.1416016,0.230957-0.3125,0.4316406-0.5136719,0.6025391
		c-0.2011719,0.1713867-0.4003906,0.3422852-0.5976563,0.5136719s-0.3662109,0.3720703-0.5078125,0.6025391
		c-0.140625,0.230957-0.2119141,0.4838867-0.2119141,0.7587891c0,0.7294922,0.15625,1.324707,0.46875,1.7861328
		c0.2158203,0.3198242,0.5097656,0.5541992,0.8818359,0.703125c0.1191406,0.0371094,0.1826172,0.0742188,0.1894531,0.1113281
		c0.0078125,0.0151367,0.0117188,0.0336914,0.0117188,0.0556641c0,0.1191406-0.0673828,0.1787109-0.2011719,0.1787109
		c-0.0449219,0-0.1669922-0.0405273-0.3681641-0.1225586c-0.8857422-0.3198242-1.6113281-0.8388672-2.1767578-1.5571289
		c-0.5654297-0.7177734-0.8476563-1.5307617-0.8476563-2.4384766c0-0.4091797,0.0908203-0.8388672,0.2734375-1.2890625
		c0.1816406-0.4501953,0.4052734-0.8779297,0.6699219-1.2836914c0.2636719-0.4052734,0.5263672-0.809082,0.7861328-1.2109375
		c0.2607422-0.4018555,0.4824219-0.8237305,0.6640625-1.2666016c0.1826172-0.4423828,0.2734375-0.8574219,0.2734375-1.2446289
		c0-0.394043-0.0927734-0.7436523-0.2783203-1.0488281c-0.2158203-0.3574219-0.4248047-0.5952148-0.625-0.7143555
		C9.1855469,6.0737305,9.1142578,5.9956055,9.1142578,5.90625c0-0.1489258,0.1533203-0.2231445,0.4580078-0.2231445
		c0.3720703,0,0.78125,0.1079102,1.2275391,0.3237305c0.3046875,0.1411133,0.5693359,0.3066406,0.7929688,0.496582
		C11.8154297,6.6928711,12,6.8828125,12.1445313,7.0727539c0.1455078,0.1894531,0.2695313,0.4223633,0.3740234,0.6972656
		c0.1044922,0.2753906,0.1865234,0.5322266,0.2460938,0.7700195c0.0585938,0.2382813,0.1181641,0.5356445,0.1777344,0.8930664
		c0,0.0073242,0.0117188,0.0722656,0.0341797,0.1953125c0.0224609,0.1225586,0.0390625,0.2158203,0.0498047,0.2788086
		c0.0117188,0.0634766,0.03125,0.15625,0.0615234,0.2792969c0.0292969,0.1225586,0.0634766,0.2231445,0.1005859,0.3012695
		s0.078125,0.1582031,0.1230469,0.2397461c0.0439453,0.0820313,0.0976563,0.1435547,0.1611328,0.184082
		c0.0634766,0.0410156,0.1318359,0.0615234,0.2070313,0.0615234c0.1708984,0,0.3085938-0.0517578,0.4130859-0.15625
		c0.1035156-0.1040039,0.15625-0.2416992,0.15625-0.4130859c0-0.1855469-0.0751953-0.4350586-0.2236328-0.7475586
		s-0.2236328-0.5058594-0.2236328-0.5805664c0-0.0742188,0.0371094-0.1113281,0.1123047-0.1113281
		c0.2001953,0,0.546875,0.2602539,1.0380859,0.78125c0.5351563,0.5654297,0.9169922,1.1459961,1.1435547,1.7412109
		S16.4365234,12.7739258,16.4365234,13.5625z"/>
</g>
</svg>
