<?xml version="1.0" encoding="utf-8"?>
<!-- Generator: Adobe Illustrator 21.0.2, SVG Export Plug-In . SVG Version: 6.00 Build 0)  -->
<svg version="1.1" id="Слой_1" xmlns="http://www.w3.org/2000/svg" xmlns:xlink="http://www.w3.org/1999/xlink" x="0px" y="0px"
	 width="24px" height="24px" viewBox="0 0 24 24" style="enable-background:new 0 0 24 24;" xml:space="preserve">
<g>
	<path d="M21.2854004,19.8571777c0,0.3867188-0.140625,0.7216797-0.4238281,1.0039063
		c-0.2832031,0.2832031-0.6171875,0.4248047-1.0039063,0.4248047c-0.4023438,0-0.7363281-0.1416016-1.0039063-0.4248047
		l-3.828125-3.8164063c-1.3320313,0.921875-2.8164063,1.3837891-4.453125,1.3837891
		c-1.0644531,0-2.0820313-0.2060547-3.0527344-0.6201172c-0.9716797-0.4121094-1.8085938-0.9702148-2.5117188-1.6733398
		s-1.2612305-1.5400391-1.6738281-2.5112305c-0.4130859-0.9711914-0.6196289-1.9882813-0.6196289-3.0522461
		s0.206543-2.081543,0.6196289-3.0527344c0.4125977-0.9707031,0.9707031-1.8081055,1.6738281-2.5112305
		s1.5400391-1.2612305,2.5117188-1.6738281c0.9707031-0.4130859,1.9882813-0.6196289,3.0527344-0.6196289
		c1.0625,0,2.0800781,0.206543,3.0507813,0.6196289c0.9726563,0.4125977,1.8085938,0.9707031,2.5117188,1.6738281
		s1.2617188,1.5405273,1.6738281,2.5112305c0.4140625,0.9711914,0.6191406,1.9887695,0.6191406,3.0527344
		c0,1.6367188-0.4609375,3.1210938-1.3828125,4.453125l3.828125,3.8276367
		C21.1486816,19.1276855,21.2854004,19.4626465,21.2854004,19.8571777z M14.1037598,14.1037598
		c0.9785156-0.9785156,1.46875-2.1557617,1.46875-3.5322266s-0.4902344-2.5541992-1.46875-3.5327148
		c-0.9785156-0.9780273-2.15625-1.4672852-3.53125-1.4672852c-1.3769531,0-2.5546875,0.4892578-3.5332031,1.4672852
		c-0.9785156,0.9785156-1.4677734,2.15625-1.4677734,3.5327148s0.4892578,2.5537109,1.4677734,3.5322266
		s2.15625,1.4677734,3.5332031,1.4677734C11.9475098,15.5715332,13.1252441,15.0822754,14.1037598,14.1037598z"/>
</g>
</svg>
