<?xml version="1.0" encoding="utf-8"?>
<!-- Generator: Adobe Illustrator 21.0.2, SVG Export Plug-In . SVG Version: 6.00 Build 0)  -->
<svg version="1.1" id="Слой_1" xmlns="http://www.w3.org/2000/svg" xmlns:xlink="http://www.w3.org/1999/xlink" x="0px" y="0px"
	 width="24px" height="24px" viewBox="0 0 24 24" style="enable-background:new 0 0 24 24;" xml:space="preserve">
<g>
	<path d="M13.2500277,3.4621582l8.57129,15.7143555c0.2607422,0.46875,0.2529297,0.9375-0.0224609,1.40625
		c-0.1259766,0.2158203-0.2988281,0.3867188-0.5185547,0.5131836s-0.4560547,0.1899414-0.7089844,0.1899414H3.4287391
		c-0.2529297,0-0.4892578-0.0634766-0.7089844-0.1899414c-0.2192383-0.1264648-0.3925781-0.2973633-0.519043-0.5131836
		c-0.2749025-0.46875-0.282715-0.9375-0.0219727-1.40625l8.5712891-15.7143555
		c0.1264648-0.2304688,0.3012695-0.4130859,0.5244141-0.546875s0.4648438-0.2011719,0.7255859-0.2011719
		c0.2602539,0,0.5024414,0.0673828,0.7255859,0.2011719S13.1235628,3.2316895,13.2500277,3.4621582z M13.4062777,13.8859863
		l0.2006836-5.1225586c0-0.0893555-0.0371094-0.1601563-0.1113281-0.2119141
		c-0.0966797-0.0820313-0.1860352-0.1230469-0.2680664-0.1230469h-2.4550781c-0.0820313,0-0.1713867,0.0410156-0.2680664,0.1230469
		c-0.0742188,0.0517578-0.1113281,0.1298828-0.1113281,0.234375l0.1894531,5.1000977
		c0,0.074707,0.0371094,0.1362305,0.1118164,0.1845703c0.0742188,0.0483398,0.1635742,0.0722656,0.2675781,0.0722656h2.0649414
		c0.1040039,0,0.1914063-0.0239258,0.262207-0.0722656S13.3989534,13.9606934,13.4062777,13.8859863z M13.4287386,18.0603027
		v-2.1206055c0-0.1040039-0.0356445-0.1914063-0.105957-0.262207c-0.0708008-0.0708008-0.1547852-0.105957-0.2514648-0.105957
		h-2.1425781c-0.0966797,0-0.1806641,0.0351563-0.2514648,0.105957s-0.105957,0.1582031-0.105957,0.262207v2.1206055
		c0,0.1044922,0.0351563,0.1914063,0.105957,0.262207s0.1547852,0.105957,0.2514648,0.105957h2.1425781
		c0.0966797,0,0.1806641-0.0351563,0.2514648-0.105957C13.3930941,18.251709,13.4287386,18.1647949,13.4287386,18.0603027z"/>
</g>
</svg>
