<svg version="1.1" id="Слой_1" xmlns="http://www.w3.org/2000/svg" xmlns:xlink="http://www.w3.org/1999/xlink" x="0px" y="0px" width="24px" height="24px" viewBox="0 0 24 24" style="enable-background:new 0 0 24 24;" xml:space="preserve"><style type="text/css">.st0{fill:#e62727;}</style><g><path class="st0" d="M18.6293945,16.0405273c0,0.2973633-0.1035156,0.550293-0.3125,0.7587891l-1.5175781,1.5175781c-0.2080078,0.2084961-0.4609375,0.3125-0.7587891,0.3125s-0.5507813-0.1040039-0.7587891-0.3125l-3.28125-3.28125l-3.28125,3.28125c-0.2084961,0.2084961-0.4619141,0.3125-0.7592773,0.3125s-0.5507813-0.1040039-0.7587891-0.3125l-1.5180664-1.5175781c-0.2080078-0.2084961-0.3125-0.4614258-0.3125-0.7587891c0-0.2978516,0.1044922-0.5507813,0.3125-0.7592773L8.9643555,12l-3.28125-3.28125c-0.2080078-0.2080078-0.3125-0.4609375-0.3125-0.7587891c0-0.2973633,0.1044922-0.5507813,0.3125-0.7587891l1.5180664-1.5180664c0.2080078-0.2080078,0.4614258-0.3125,0.7587891-0.3125s0.5507813,0.1044922,0.7592773,0.3125l3.28125,3.28125l3.28125-3.28125c0.2080078-0.2080078,0.4609375-0.3125,0.7587891-0.3125s0.5507813,0.1044922,0.7587891,0.3125l1.5175781,1.5180664c0.2089844,0.2080078,0.3125,0.4614258,0.3125,0.7587891c0,0.2978516-0.1035156,0.5507813-0.3125,0.7587891L15.0356445,12l3.28125,3.28125C18.5258789,15.4897461,18.6293945,15.7426758,18.6293945,16.0405273z"/></g></svg>