<svg version="1.1" id="Слой_1" xmlns="http://www.w3.org/2000/svg" xmlns:xlink="http://www.w3.org/1999/xlink" x="0px" y="0px" width="24px" height="24px" viewBox="0 0 24 24" style="enable-background:new 0 0 24 24;" xml:space="preserve"><style type="text/css">.st0{fill:#689f38;}</style><g><path class="st0" d="M20.6491699,7.9599609c0,0.2973633-0.1035156,0.550293-0.3125,0.7587891l-8.0800781,8.0800781l-1.5175781,1.5180664c-0.2089844,0.2084961-0.4609375,0.3125-0.7597656,0.3125c-0.296875,0-0.5488281-0.1040039-0.7578125-0.3125l-1.5175781-1.5180664l-4.0405273-4.0400391C3.454834,12.5507813,3.3508301,12.2973633,3.3508301,12s0.1040039-0.5507813,0.3125-0.7587891l1.5175781-1.5180664c0.2084961-0.2080078,0.4614258-0.3125,0.7592773-0.3125c0.2973633,0,0.550293,0.1044922,0.7587891,0.3125L9.979248,13.015625l7.3222656-7.3325195c0.2089844-0.2084961,0.4609375-0.3125,0.7597656-0.3125c0.296875,0,0.5488281,0.1040039,0.7578125,0.3125l1.5175781,1.5175781C20.5456543,7.4091797,20.6491699,7.6621094,20.6491699,7.9599609z"/></g></svg>