<svg version="1.1" id="Слой_1" xmlns="http://www.w3.org/2000/svg" xmlns:xlink="http://www.w3.org/1999/xlink" x="0px" y="0px"
	 width="24px" height="24px" viewBox="0 0 24 24" style="enable-background:new 0 0 24 24;" xml:space="preserve">
<g>
	<path d="M22.0002441,5.9284668c0,0.5878906-0.1835938,1.1494141-0.546875,1.6850586
		c-0.3652344,0.5361328-0.8183594,0.9936523-1.3613281,1.3730469c-2.7988281,1.9418945-4.5390625,3.1508789-5.2246094,3.6274414
		c-0.0742188,0.0517578-0.2324219,0.1660156-0.4746094,0.3398438c-0.2402344,0.1757813-0.4414063,0.3164063-0.6015625,0.4238281
		c-0.1601563,0.1083984-0.3535156,0.2294922-0.5800781,0.3632813s-0.4414063,0.234375-0.6425781,0.3007813
		c-0.2011719,0.0673828-0.3867188,0.1015625-0.5585938,0.1015625h-0.0097656h-0.0117188
		c-0.171875,0-0.3574219-0.0341797-0.5585938-0.1015625c-0.2011719-0.0664063-0.4140625-0.1669922-0.640625-0.3007813
		s-0.421875-0.2548828-0.5800781-0.3632813c-0.1601563-0.1074219-0.3613281-0.2480469-0.6035156-0.4238281
		c-0.2421875-0.1738281-0.4003906-0.2880859-0.4746094-0.3398438c-0.6767578-0.4765625-1.6513672-1.1552734-2.9238281-2.0371094
		s-2.0351563-1.4116211-2.2880859-1.590332c-0.4614258-0.3125-0.8964844-0.7421875-1.3056641-1.2890625
		S1.9997559,6.6428223,1.9997559,6.1740723c0-0.5805664,0.1542969-1.0639648,0.4633789-1.4511719
		c0.3085938-0.3867188,0.7495117-0.5800781,1.3222656-0.5800781h16.4277344c0.484375,0,0.9023438,0.1748047,1.2558594,0.5244141
		C21.8225098,5.017334,22.0002441,5.4372559,22.0002441,5.9284668z M22.0002441,9.2097168v8.8613281
		c0,0.4912109-0.1757813,0.9121094-0.5253906,1.2617188s-0.7695313,0.5244141-1.2617188,0.5244141H3.7854004
		c-0.4912109,0-0.9116211-0.1748047-1.2612305-0.5244141s-0.5244141-0.7705078-0.5244141-1.2617188V9.2097168
		c0.3271484,0.3647461,0.703125,0.6884766,1.1274414,0.9711914c2.6933594,1.8300781,4.5419922,3.1137695,5.546875,3.8500977
		c0.4238281,0.3125,0.7675781,0.5566406,1.03125,0.7314453c0.265625,0.1748047,0.6171875,0.3535156,1.0546875,0.5351563
		c0.4394531,0.1826172,0.8496094,0.2734375,1.2285156,0.2734375h0.0117188h0.0097656
		c0.3808594,0,0.7890625-0.0908203,1.2285156-0.2734375c0.4394531-0.1816406,0.7910156-0.3603516,1.0546875-0.5351563
		s0.6074219-0.4189453,1.0332031-0.7314453c1.2636719-0.9150391,3.1171875-2.1987305,5.5566406-3.8500977
		C21.3068848,9.8903809,21.6799316,9.5666504,22.0002441,9.2097168z"/>
</g>
</svg>
