<svg version="1.1" id="Слой_1" xmlns="http://www.w3.org/2000/svg" xmlns:xlink="http://www.w3.org/1999/xlink" x="0px" y="0px"
	 width="24px" height="24px" viewBox="0 0 24 24" style="enable-background:new 0 0 24 24;" xml:space="preserve">
<g>
	<path d="M19.8569336,16.5534668c0,0.2011719-0.0371094,0.4638672-0.1113281,0.7871094s-0.1523438,0.5791016-0.234375,0.7646484
		c-0.15625,0.3720703-0.6103516,0.765625-1.3613281,1.1826172c-0.6992188,0.3798828-1.3916016,0.5693359-2.0761719,0.5693359
		c-0.2011719,0-0.3984375-0.0126953-0.5917969-0.0390625c-0.1933594-0.0253906-0.4072266-0.0722656-0.6416016-0.1396484
		s-0.4091797-0.1201172-0.5244141-0.1611328s-0.3212891-0.1171875-0.6191406-0.2294922
		c-0.2978516-0.1113281-0.4804688-0.1787109-0.546875-0.2001953c-0.7294922-0.2607422-1.3808594-0.5703125-1.953125-0.9267578
		C10.2514648,17.572998,9.269043,16.7692871,8.25,15.7497559s-1.8227539-2.0009766-2.4106445-2.9462891
		c-0.3569336-0.5727539-0.6660156-1.2236328-0.9262695-1.953125c-0.0224609-0.0668945-0.0893555-0.2490234-0.2006836-0.546875
		c-0.1118164-0.2973633-0.1879883-0.5039063-0.2290039-0.6191406S4.3886719,9.3937988,4.3217773,9.1594238
		S4.2080078,8.7116699,4.1821289,8.5178223c-0.0263672-0.1933594-0.0390625-0.390625-0.0390625-0.5913086
		c0-0.6845703,0.1899414-1.3764648,0.5693359-2.0761719C5.1289063,5.098877,5.5229492,4.6452637,5.8955078,4.4890137
		c0.1855469-0.0820313,0.4404297-0.1601563,0.7641602-0.234375s0.5859375-0.1118164,0.7871094-0.1118164
		c0.1040039,0,0.1821289,0.0112305,0.234375,0.0336914C7.8149414,4.2209473,8.012207,4.5036621,8.2724609,5.0246582
		c0.0820313,0.1411133,0.1933594,0.3422852,0.3349609,0.6025391c0.1411133,0.2607422,0.2719727,0.496582,0.3911133,0.7089844
		c0.1181641,0.2119141,0.2333984,0.4111328,0.3457031,0.5966797c0.0224609,0.0297852,0.0869141,0.1230469,0.1953125,0.2792969
		c0.1074219,0.15625,0.1875,0.2885742,0.2392578,0.3959961c0.0527344,0.1079102,0.078125,0.2138672,0.078125,0.3183594
		c0,0.1489258-0.1054688,0.3344727-0.3173828,0.5581055C9.3276367,8.7077637,9.0961914,8.9123535,8.847168,9.0983887
		S8.3671875,9.4816895,8.1552734,9.6896973c-0.2119141,0.2084961-0.3178711,0.3793945-0.3178711,0.5136719
		c0,0.0668945,0.0185547,0.1503906,0.0556641,0.2509766s0.0688477,0.1767578,0.0947266,0.2285156
		c0.0263672,0.0522461,0.078125,0.1416016,0.15625,0.2680664s0.1210938,0.1972656,0.128418,0.2119141
		c0.565918,1.0195313,1.2124023,1.8935547,1.9418945,2.6230469s1.6035156,1.3759766,2.6230469,1.9423828
		c0.0146484,0.0068359,0.0849609,0.0498047,0.2119141,0.1279297c0.1259766,0.078125,0.2158203,0.1298828,0.2675781,0.15625
		c0.0527344,0.0263672,0.1289063,0.0576172,0.2294922,0.0947266c0.0996094,0.0371094,0.1835938,0.0556641,0.2509766,0.0556641
		c0.1337891,0,0.3046875-0.1064453,0.5126953-0.3173828c0.2089844-0.2128906,0.40625-0.4433594,0.5917969-0.6923828
		c0.1865234-0.2490234,0.390625-0.4794922,0.6142578-0.6923828c0.2226563-0.2119141,0.4091797-0.3183594,0.5576172-0.3183594
		c0.1044922,0,0.2099609,0.0273438,0.3183594,0.078125c0.1074219,0.0527344,0.2402344,0.1328125,0.3964844,0.2402344
		c0.15625,0.1083984,0.2490234,0.1738281,0.2783203,0.1953125c0.1865234,0.1113281,0.3857422,0.2275391,0.5976563,0.3457031
		c0.2119141,0.1191406,0.4482422,0.25,0.7080078,0.390625c0.2607422,0.1425781,0.4619141,0.2539063,0.6035156,0.3359375
		c0.5205078,0.2597656,0.8027344,0.4570313,0.8476563,0.5908203C19.8461914,16.3708496,19.8569336,16.4489746,19.8569336,16.5534668
		z"/>
</g>
</svg>
