<?xml version="1.0" encoding="utf-8"?>
<!-- Generator: Adobe Illustrator 21.0.2, SVG Export Plug-In . SVG Version: 6.00 Build 0)  -->
<svg version="1.1" id="Слой_1" xmlns="http://www.w3.org/2000/svg" xmlns:xlink="http://www.w3.org/1999/xlink" x="0px" y="0px"
	 width="24px" height="24px" viewBox="0 0 24 24" style="enable-background:new 0 0 24 24;" xml:space="preserve">
<g>
	<path d="M5.2138672,4.8569336c0,0.5356445-0.2382813,0.9448242-0.7143555,1.2275391v14.1293945
		c0,0.0966797-0.0351563,0.1806641-0.105957,0.2514648c-0.0708008,0.0703125-0.1542969,0.1064453-0.2509766,0.1064453H3.4282227
		c-0.0966797,0-0.1801758-0.0361328-0.2509766-0.1064453c-0.0708008-0.0708008-0.105957-0.1547852-0.105957-0.2514648V6.0844727
		C2.5947266,5.8017578,2.3569336,5.3925781,2.3569336,4.8569336c0-0.3945313,0.1396484-0.730957,0.418457-1.0102539
		c0.2788086-0.2788086,0.6157227-0.418457,1.0102539-0.418457c0.394043,0,0.730957,0.1396484,1.0097656,0.418457
		C5.074707,4.1259766,5.2138672,4.4624023,5.2138672,4.8569336z M21.6430664,5.5712891v8.515625
		c0,0.1860352-0.046875,0.3291016-0.140625,0.4296875c-0.0917969,0.1000977-0.2402344,0.2026367-0.4394531,0.3066406
		c-1.5996094,0.8632813-2.9726563,1.2949219-4.1191406,1.2949219c-0.453125,0-0.9140625-0.0820313-1.3789063-0.2456055
		s-0.8671875-0.3422852-1.2109375-0.5356445c-0.3417969-0.1933594-0.7714844-0.3720703-1.2890625-0.5356445
		c-0.515625-0.1635742-1.046875-0.2456055-1.5898438-0.2456055c-1.4277344,0-3.1542969,0.5429688-5.1787109,1.6293945
		c-0.1264648,0.0668945-0.2490234,0.1005859-0.3681641,0.1005859c-0.1933594,0-0.3608398-0.0708008-0.5019531-0.2124023
		c-0.1416016-0.1411133-0.2124023-0.3085938-0.2124023-0.5019531v-8.28125c0-0.2382813,0.1152344-0.4428711,0.3461914-0.6137695
		c0.15625-0.1044922,0.4501953-0.2641602,0.8818359-0.4799805c1.7558594-0.8930664,3.3222656-1.3393555,4.6992188-1.3393555
		c0.7949219,0,1.5390625,0.1079102,2.2304688,0.3237305c0.6933594,0.2158203,1.5078125,0.5429688,2.4453125,0.9819336
		c0.2832031,0.1416016,0.609375,0.2119141,0.9824219,0.2119141c0.4003906,0,0.8378906-0.078125,1.3105469-0.234375
		s0.8828125-0.3305664,1.2285156-0.5244141c0.3457031-0.1933594,0.671875-0.3681641,0.9824219-0.5244141
		c0.3085938-0.15625,0.5097656-0.234375,0.6074219-0.234375c0.1933594,0,0.3613281,0.0708008,0.5019531,0.2119141
		C21.5727539,5.2104492,21.6430664,5.3779297,21.6430664,5.5712891z"/>
</g>
</svg>
